<?xml version="1.0" encoding="utf-8"?>
<svg version="1.1" id="layer" xmlns="http://www.w3.org/2000/svg" xmlns:xlink="http://www.w3.org/1999/xlink" x="0px" y="0px" viewBox="0 0 18 18" style="enable-background:new 0 0 18 18;" xml:space="preserve">
<rect x="0" y="0" width="1" height="1"/>
<rect x="2" y="0" width="1" height="1"/>
<rect x="4" y="0" width="1" height="1"/>
<rect x="6" y="0" width="1" height="1"/>
<rect x="8" y="0" width="1" height="1"/>
<rect x="10" y="0" width="1" height="1"/>
<rect x="12" y="0" width="1" height="1"/>
<rect x="14" y="0" width="1" height="1"/>
<rect x="16" y="0" width="1" height="1"/>
<rect x="0" y="2" width="1" height="1"/>
<rect x="2" y="2" width="1" height="1"/>
<rect x="4" y="2" width="1" height="1"/>
<rect x="6" y="2" width="1" height="1"/>
<rect x="8" y="2" width="1" height="1"/>
<rect x="10" y="2" width="1" height="1"/>
<rect x="12" y="2" width="1" height="1"/>
<rect x="14" y="2" width="1" height="1"/>
<rect x="16" y="2" width="1" height="1"/>
<rect x="0" y="4" width="1" height="1"/>
<rect x="2" y="4" width="1" height="1"/>
<rect x="4" y="4" width="1" height="1"/>
<rect x="6" y="4" width="1" height="1"/>
<rect x="8" y="4" width="1" height="1"/>
<rect x="10" y="4" width="1" height="1"/>
<rect x="12" y="4" width="1" height="1"/>
<rect x="14" y="4" width="1" height="1"/>
<rect x="16" y="4" width="1" height="1"/>
<rect x="0" y="6" width="1" height="1"/>
<rect x="2" y="6" width="1" height="1"/>
<rect x="4" y="6" width="1" height="1"/>
<rect x="6" y="6" width="1" height="1"/>
<rect x="8" y="6" width="1" height="1"/>
<rect x="10" y="6" width="1" height="1"/>
<rect x="12" y="6" width="1" height="1"/>
<rect x="14" y="6" width="1" height="1"/>
<rect x="16" y="6" width="1" height="1"/>
<rect x="0" y="8" width="1" height="1"/>
<rect x="2" y="8" width="1" height="1"/>
<rect x="4" y="8" width="1" height="1"/>
<rect x="6" y="8" width="1" height="1"/>
<rect x="8" y="8" width="1" height="1"/>
<rect x="10" y="8" width="1" height="1"/>
<rect x="12" y="8" width="1" height="1"/>
<rect x="14" y="8" width="1" height="1"/>
<rect x="16" y="8" width="1" height="1"/>
<rect x="0" y="10" width="1" height="1"/>
<rect x="2" y="10" width="1" height="1"/>
<rect x="4" y="10" width="1" height="1"/>
<rect x="6" y="10" width="1" height="1"/>
<rect x="8" y="10" width="1" height="1"/>
<rect x="10" y="10" width="1" height="1"/>
<rect x="12" y="10" width="1" height="1"/>
<rect x="14" y="10" width="1" height="1"/>
<rect x="16" y="10" width="1" height="1"/>
<rect x="0" y="12" width="1" height="1"/>
<rect x="2" y="12" width="1" height="1"/>
<rect x="4" y="12" width="1" height="1"/>
<rect x="6" y="12" width="1" height="1"/>
<rect x="8" y="12" width="1" height="1"/>
<rect x="10" y="12" width="1" height="1"/>
<rect x="12" y="12" width="1" height="1"/>
<rect x="14" y="12" width="1" height="1"/>
<rect x="16" y="12" width="1" height="1"/>
<rect x="0" y="14" width="1" height="1"/>
<rect x="2" y="14" width="1" height="1"/>
<rect x="4" y="14" width="1" height="1"/>
<rect x="6" y="14" width="1" height="1"/>
<rect x="8" y="14" width="1" height="1"/>
<rect x="10" y="14" width="1" height="1"/>
<rect x="12" y="14" width="1" height="1"/>
<rect x="14" y="14" width="1" height="1"/>
<rect x="16" y="14" width="1" height="1"/>
<rect x="0" y="16" width="1" height="1"/>
<rect x="2" y="16" width="1" height="1"/>
<rect x="4" y="16" width="1" height="1"/>
<rect x="6" y="16" width="1" height="1"/>
<rect x="8" y="16" width="1" height="1"/>
<rect x="10" y="16" width="1" height="1"/>
<rect x="12" y="16" width="1" height="1"/>
<rect x="14" y="16" width="1" height="1"/>
<rect x="16" y="16" width="1" height="1"/>
</svg>