<?xml version="1.0" encoding="utf-8"?>
<svg version="1.1" id="layer" xmlns="http://www.w3.org/2000/svg" xmlns:xlink="http://www.w3.org/1999/xlink" x="0px" y="0px" viewBox="0 0 33 33" style="enable-background:new 0 0 33 33;" xml:space="preserve">
<rect x="0" y="0" width="1" height="1"/>
<rect x="1" y="0" width="1" height="1"/>
<rect x="2" y="0" width="1" height="1"/>
<rect x="3" y="0" width="1" height="1"/>
<rect x="4" y="0" width="1" height="1"/>
<rect x="5" y="0" width="1" height="1"/>
<rect x="6" y="0" width="1" height="1"/>
<rect x="7" y="0" width="1" height="1"/>
<rect x="8" y="0" width="1" height="1"/>
<rect x="9" y="0" width="1" height="1"/>
<rect x="10" y="0" width="1" height="1"/>
<rect x="11" y="0" width="1" height="1"/>
<rect x="12" y="0" width="1" height="1"/>
<rect x="13" y="0" width="1" height="1"/>
<rect x="14" y="0" width="1" height="1"/>
<rect x="15" y="0" width="1" height="1"/>
<rect x="0" y="1" width="1" height="1"/>
<rect x="1" y="1" width="1" height="1"/>
<rect x="2" y="1" width="1" height="1"/>
<rect x="3" y="1" width="1" height="1"/>
<rect x="4" y="1" width="1" height="1"/>
<rect x="5" y="1" width="1" height="1"/>
<rect x="6" y="1" width="1" height="1"/>
<rect x="7" y="1" width="1" height="1"/>
<rect x="8" y="1" width="1" height="1"/>
<rect x="9" y="1" width="1" height="1"/>
<rect x="10" y="1" width="1" height="1"/>
<rect x="11" y="1" width="1" height="1"/>
<rect x="12" y="1" width="1" height="1"/>
<rect x="13" y="1" width="1" height="1"/>
<rect x="14" y="1" width="1" height="1"/>
<rect x="15" y="1" width="1" height="1"/>
<rect x="18" y="1" width="1" height="1"/>
<rect x="0" y="2" width="1" height="1"/>
<rect x="1" y="2" width="1" height="1"/>
<rect x="2" y="2" width="1" height="1"/>
<rect x="3" y="2" width="1" height="1"/>
<rect x="4" y="2" width="1" height="1"/>
<rect x="5" y="2" width="1" height="1"/>
<rect x="6" y="2" width="1" height="1"/>
<rect x="7" y="2" width="1" height="1"/>
<rect x="8" y="2" width="1" height="1"/>
<rect x="9" y="2" width="1" height="1"/>
<rect x="10" y="2" width="1" height="1"/>
<rect x="11" y="2" width="1" height="1"/>
<rect x="12" y="2" width="1" height="1"/>
<rect x="13" y="2" width="1" height="1"/>
<rect x="14" y="2" width="1" height="1"/>
<rect x="15" y="2" width="1" height="1"/>
<rect x="16" y="2" width="1" height="1"/>
<rect x="0" y="3" width="1" height="1"/>
<rect x="1" y="3" width="1" height="1"/>
<rect x="2" y="3" width="1" height="1"/>
<rect x="3" y="3" width="1" height="1"/>
<rect x="4" y="3" width="1" height="1"/>
<rect x="5" y="3" width="1" height="1"/>
<rect x="6" y="3" width="1" height="1"/>
<rect x="7" y="3" width="1" height="1"/>
<rect x="8" y="3" width="1" height="1"/>
<rect x="9" y="3" width="1" height="1"/>
<rect x="10" y="3" width="1" height="1"/>
<rect x="11" y="3" width="1" height="1"/>
<rect x="12" y="3" width="1" height="1"/>
<rect x="13" y="3" width="1" height="1"/>
<rect x="14" y="3" width="1" height="1"/>
<rect x="15" y="3" width="1" height="1"/>
<rect x="16" y="3" width="1" height="1"/>
<rect x="17" y="3" width="1" height="1"/>
<rect x="0" y="4" width="1" height="1"/>
<rect x="1" y="4" width="1" height="1"/>
<rect x="2" y="4" width="1" height="1"/>
<rect x="3" y="4" width="1" height="1"/>
<rect x="4" y="4" width="1" height="1"/>
<rect x="5" y="4" width="1" height="1"/>
<rect x="6" y="4" width="1" height="1"/>
<rect x="7" y="4" width="1" height="1"/>
<rect x="8" y="4" width="1" height="1"/>
<rect x="9" y="4" width="1" height="1"/>
<rect x="10" y="4" width="1" height="1"/>
<rect x="11" y="4" width="1" height="1"/>
<rect x="12" y="4" width="1" height="1"/>
<rect x="13" y="4" width="1" height="1"/>
<rect x="14" y="4" width="1" height="1"/>
<rect x="15" y="4" width="1" height="1"/>
<rect x="16" y="4" width="1" height="1"/>
<rect x="0" y="5" width="1" height="1"/>
<rect x="1" y="5" width="1" height="1"/>
<rect x="2" y="5" width="1" height="1"/>
<rect x="3" y="5" width="1" height="1"/>
<rect x="4" y="5" width="1" height="1"/>
<rect x="5" y="5" width="1" height="1"/>
<rect x="6" y="5" width="1" height="1"/>
<rect x="7" y="5" width="1" height="1"/>
<rect x="8" y="5" width="1" height="1"/>
<rect x="9" y="5" width="1" height="1"/>
<rect x="10" y="5" width="1" height="1"/>
<rect x="11" y="5" width="1" height="1"/>
<rect x="12" y="5" width="1" height="1"/>
<rect x="13" y="5" width="1" height="1"/>
<rect x="14" y="5" width="1" height="1"/>
<rect x="15" y="5" width="1" height="1"/>
<rect x="16" y="5" width="1" height="1"/>
<rect x="17" y="5" width="1" height="1"/>
<rect x="0" y="6" width="1" height="1"/>
<rect x="1" y="6" width="1" height="1"/>
<rect x="2" y="6" width="1" height="1"/>
<rect x="3" y="6" width="1" height="1"/>
<rect x="4" y="6" width="1" height="1"/>
<rect x="5" y="6" width="1" height="1"/>
<rect x="6" y="6" width="1" height="1"/>
<rect x="7" y="6" width="1" height="1"/>
<rect x="8" y="6" width="1" height="1"/>
<rect x="9" y="6" width="1" height="1"/>
<rect x="10" y="6" width="1" height="1"/>
<rect x="11" y="6" width="1" height="1"/>
<rect x="12" y="6" width="1" height="1"/>
<rect x="13" y="6" width="1" height="1"/>
<rect x="14" y="6" width="1" height="1"/>
<rect x="15" y="6" width="1" height="1"/>
<rect x="16" y="6" width="1" height="1"/>
<rect x="0" y="7" width="1" height="1"/>
<rect x="1" y="7" width="1" height="1"/>
<rect x="2" y="7" width="1" height="1"/>
<rect x="3" y="7" width="1" height="1"/>
<rect x="4" y="7" width="1" height="1"/>
<rect x="5" y="7" width="1" height="1"/>
<rect x="6" y="7" width="1" height="1"/>
<rect x="7" y="7" width="1" height="1"/>
<rect x="8" y="7" width="1" height="1"/>
<rect x="9" y="7" width="1" height="1"/>
<rect x="10" y="7" width="1" height="1"/>
<rect x="11" y="7" width="1" height="1"/>
<rect x="12" y="7" width="1" height="1"/>
<rect x="13" y="7" width="1" height="1"/>
<rect x="14" y="7" width="1" height="1"/>
<rect x="15" y="7" width="1" height="1"/>
<rect x="16" y="7" width="1" height="1"/>
<rect x="0" y="8" width="1" height="1"/>
<rect x="1" y="8" width="1" height="1"/>
<rect x="2" y="8" width="1" height="1"/>
<rect x="3" y="8" width="1" height="1"/>
<rect x="4" y="8" width="1" height="1"/>
<rect x="5" y="8" width="1" height="1"/>
<rect x="6" y="8" width="1" height="1"/>
<rect x="7" y="8" width="1" height="1"/>
<rect x="8" y="8" width="1" height="1"/>
<rect x="9" y="8" width="1" height="1"/>
<rect x="10" y="8" width="1" height="1"/>
<rect x="11" y="8" width="1" height="1"/>
<rect x="12" y="8" width="1" height="1"/>
<rect x="13" y="8" width="1" height="1"/>
<rect x="14" y="8" width="1" height="1"/>
<rect x="15" y="8" width="1" height="1"/>
<rect x="16" y="8" width="1" height="1"/>
<rect x="0" y="9" width="1" height="1"/>
<rect x="1" y="9" width="1" height="1"/>
<rect x="2" y="9" width="1" height="1"/>
<rect x="3" y="9" width="1" height="1"/>
<rect x="4" y="9" width="1" height="1"/>
<rect x="5" y="9" width="1" height="1"/>
<rect x="6" y="9" width="1" height="1"/>
<rect x="7" y="9" width="1" height="1"/>
<rect x="8" y="9" width="1" height="1"/>
<rect x="9" y="9" width="1" height="1"/>
<rect x="10" y="9" width="1" height="1"/>
<rect x="11" y="9" width="1" height="1"/>
<rect x="12" y="9" width="1" height="1"/>
<rect x="13" y="9" width="1" height="1"/>
<rect x="14" y="9" width="1" height="1"/>
<rect x="0" y="10" width="1" height="1"/>
<rect x="1" y="10" width="1" height="1"/>
<rect x="2" y="10" width="1" height="1"/>
<rect x="3" y="10" width="1" height="1"/>
<rect x="4" y="10" width="1" height="1"/>
<rect x="5" y="10" width="1" height="1"/>
<rect x="6" y="10" width="1" height="1"/>
<rect x="7" y="10" width="1" height="1"/>
<rect x="8" y="10" width="1" height="1"/>
<rect x="9" y="10" width="1" height="1"/>
<rect x="10" y="10" width="1" height="1"/>
<rect x="11" y="10" width="1" height="1"/>
<rect x="12" y="10" width="1" height="1"/>
<rect x="14" y="10" width="1" height="1"/>
<rect x="15" y="10" width="1" height="1"/>
<rect x="0" y="11" width="1" height="1"/>
<rect x="1" y="11" width="1" height="1"/>
<rect x="2" y="11" width="1" height="1"/>
<rect x="3" y="11" width="1" height="1"/>
<rect x="4" y="11" width="1" height="1"/>
<rect x="5" y="11" width="1" height="1"/>
<rect x="6" y="11" width="1" height="1"/>
<rect x="7" y="11" width="1" height="1"/>
<rect x="8" y="11" width="1" height="1"/>
<rect x="9" y="11" width="1" height="1"/>
<rect x="10" y="11" width="1" height="1"/>
<rect x="11" y="11" width="1" height="1"/>
<rect x="12" y="11" width="1" height="1"/>
<rect x="0" y="12" width="1" height="1"/>
<rect x="1" y="12" width="1" height="1"/>
<rect x="2" y="12" width="1" height="1"/>
<rect x="3" y="12" width="1" height="1"/>
<rect x="4" y="12" width="1" height="1"/>
<rect x="5" y="12" width="1" height="1"/>
<rect x="6" y="12" width="1" height="1"/>
<rect x="7" y="12" width="1" height="1"/>
<rect x="8" y="12" width="1" height="1"/>
<rect x="9" y="12" width="1" height="1"/>
<rect x="10" y="12" width="1" height="1"/>
<rect x="11" y="12" width="1" height="1"/>
<rect x="12" y="12" width="1" height="1"/>
<rect x="13" y="12" width="1" height="1"/>
<rect x="14" y="12" width="1" height="1"/>
<rect x="15" y="12" width="1" height="1"/>
<rect x="0" y="13" width="1" height="1"/>
<rect x="1" y="13" width="1" height="1"/>
<rect x="2" y="13" width="1" height="1"/>
<rect x="3" y="13" width="1" height="1"/>
<rect x="4" y="13" width="1" height="1"/>
<rect x="5" y="13" width="1" height="1"/>
<rect x="6" y="13" width="1" height="1"/>
<rect x="7" y="13" width="1" height="1"/>
<rect x="8" y="13" width="1" height="1"/>
<rect x="9" y="13" width="1" height="1"/>
<rect x="10" y="13" width="1" height="1"/>
<rect x="11" y="13" width="1" height="1"/>
<rect x="12" y="13" width="1" height="1"/>
<rect x="13" y="13" width="1" height="1"/>
<rect x="14" y="13" width="1" height="1"/>
<rect x="16" y="13" width="1" height="1"/>
<rect x="0" y="14" width="1" height="1"/>
<rect x="1" y="14" width="1" height="1"/>
<rect x="2" y="14" width="1" height="1"/>
<rect x="3" y="14" width="1" height="1"/>
<rect x="4" y="14" width="1" height="1"/>
<rect x="5" y="14" width="1" height="1"/>
<rect x="6" y="14" width="1" height="1"/>
<rect x="7" y="14" width="1" height="1"/>
<rect x="8" y="14" width="1" height="1"/>
<rect x="9" y="14" width="1" height="1"/>
<rect x="10" y="14" width="1" height="1"/>
<rect x="11" y="14" width="1" height="1"/>
<rect x="12" y="14" width="1" height="1"/>
<rect x="13" y="14" width="1" height="1"/>
<rect x="14" y="14" width="1" height="1"/>
<rect x="16" y="14" width="1" height="1"/>
<rect x="0" y="15" width="1" height="1"/>
<rect x="1" y="15" width="1" height="1"/>
<rect x="2" y="15" width="1" height="1"/>
<rect x="3" y="15" width="1" height="1"/>
<rect x="4" y="15" width="1" height="1"/>
<rect x="5" y="15" width="1" height="1"/>
<rect x="6" y="15" width="1" height="1"/>
<rect x="7" y="15" width="1" height="1"/>
<rect x="8" y="15" width="1" height="1"/>
<rect x="9" y="15" width="1" height="1"/>
<rect x="10" y="15" width="1" height="1"/>
<rect x="11" y="15" width="1" height="1"/>
<rect x="12" y="15" width="1" height="1"/>
<rect x="13" y="15" width="1" height="1"/>
<rect x="16" y="15" width="1" height="1"/>
<rect x="0" y="16" width="1" height="1"/>
<rect x="1" y="16" width="1" height="1"/>
<rect x="2" y="16" width="1" height="1"/>
<rect x="3" y="16" width="1" height="1"/>
<rect x="4" y="16" width="1" height="1"/>
<rect x="5" y="16" width="1" height="1"/>
<rect x="6" y="16" width="1" height="1"/>
<rect x="7" y="16" width="1" height="1"/>
<rect x="8" y="16" width="1" height="1"/>
<rect x="11" y="16" width="1" height="1"/>
<rect x="12" y="16" width="1" height="1"/>
<rect x="0" y="17" width="1" height="1"/>
<rect x="1" y="17" width="1" height="1"/>
<rect x="2" y="17" width="1" height="1"/>
<rect x="3" y="17" width="1" height="1"/>
<rect x="4" y="17" width="1" height="1"/>
<rect x="5" y="17" width="1" height="1"/>
<rect x="6" y="17" width="1" height="1"/>
<rect x="7" y="17" width="1" height="1"/>
<rect x="8" y="17" width="1" height="1"/>
<rect x="9" y="17" width="1" height="1"/>
<rect x="0" y="18" width="1" height="1"/>
<rect x="1" y="18" width="1" height="1"/>
<rect x="2" y="18" width="1" height="1"/>
<rect x="3" y="18" width="1" height="1"/>
<rect x="4" y="18" width="1" height="1"/>
<rect x="5" y="18" width="1" height="1"/>
<rect x="6" y="18" width="1" height="1"/>
<rect x="7" y="18" width="1" height="1"/>
<rect x="9" y="18" width="1" height="1"/>
<rect x="11" y="18" width="1" height="1"/>
<rect x="12" y="18" width="1" height="1"/>
<rect x="0" y="19" width="1" height="1"/>
<rect x="1" y="19" width="1" height="1"/>
<rect x="2" y="19" width="1" height="1"/>
<rect x="3" y="19" width="1" height="1"/>
<rect x="4" y="19" width="1" height="1"/>
<rect x="5" y="19" width="1" height="1"/>
<rect x="6" y="19" width="1" height="1"/>
<rect x="11" y="19" width="1" height="1"/>
<rect x="0" y="20" width="1" height="1"/>
<rect x="1" y="20" width="1" height="1"/>
<rect x="2" y="20" width="1" height="1"/>
<rect x="3" y="20" width="1" height="1"/>
<rect x="4" y="20" width="1" height="1"/>
<rect x="5" y="20" width="1" height="1"/>
<rect x="6" y="20" width="1" height="1"/>
<rect x="7" y="20" width="1" height="1"/>
<rect x="8" y="20" width="1" height="1"/>
<rect x="9" y="20" width="1" height="1"/>
<rect x="11" y="20" width="1" height="1"/>
<rect x="0" y="21" width="1" height="1"/>
<rect x="1" y="21" width="1" height="1"/>
<rect x="2" y="21" width="1" height="1"/>
<rect x="3" y="21" width="1" height="1"/>
<rect x="4" y="21" width="1" height="1"/>
<rect x="5" y="21" width="1" height="1"/>
<rect x="6" y="21" width="1" height="1"/>
<rect x="7" y="21" width="1" height="1"/>
<rect x="8" y="21" width="1" height="1"/>
<rect x="9" y="21" width="1" height="1"/>
<rect x="0" y="22" width="1" height="1"/>
<rect x="1" y="22" width="1" height="1"/>
<rect x="2" y="22" width="1" height="1"/>
<rect x="3" y="22" width="1" height="1"/>
<rect x="4" y="22" width="1" height="1"/>
<rect x="5" y="22" width="1" height="1"/>
<rect x="6" y="22" width="1" height="1"/>
<rect x="7" y="22" width="1" height="1"/>
<rect x="8" y="22" width="1" height="1"/>
<rect x="9" y="22" width="1" height="1"/>
<rect x="0" y="23" width="1" height="1"/>
<rect x="1" y="23" width="1" height="1"/>
<rect x="2" y="23" width="1" height="1"/>
<rect x="3" y="23" width="1" height="1"/>
<rect x="4" y="23" width="1" height="1"/>
<rect x="5" y="23" width="1" height="1"/>
<rect x="6" y="23" width="1" height="1"/>
<rect x="7" y="23" width="1" height="1"/>
<rect x="8" y="23" width="1" height="1"/>
<rect x="0" y="24" width="1" height="1"/>
<rect x="1" y="24" width="1" height="1"/>
<rect x="2" y="24" width="1" height="1"/>
<rect x="3" y="24" width="1" height="1"/>
<rect x="4" y="24" width="1" height="1"/>
<rect x="5" y="24" width="1" height="1"/>
<rect x="6" y="24" width="1" height="1"/>
<rect x="7" y="24" width="1" height="1"/>
<rect x="8" y="24" width="1" height="1"/>
<rect x="9" y="24" width="1" height="1"/>
<rect x="0" y="25" width="1" height="1"/>
<rect x="1" y="25" width="1" height="1"/>
<rect x="2" y="25" width="1" height="1"/>
<rect x="3" y="25" width="1" height="1"/>
<rect x="4" y="25" width="1" height="1"/>
<rect x="5" y="25" width="1" height="1"/>
<rect x="6" y="25" width="1" height="1"/>
<rect x="7" y="25" width="1" height="1"/>
<rect x="0" y="26" width="1" height="1"/>
<rect x="1" y="26" width="1" height="1"/>
<rect x="2" y="26" width="1" height="1"/>
<rect x="3" y="26" width="1" height="1"/>
<rect x="4" y="26" width="1" height="1"/>
<rect x="5" y="26" width="1" height="1"/>
<rect x="6" y="26" width="1" height="1"/>
<rect x="7" y="26" width="1" height="1"/>
<rect x="0" y="27" width="1" height="1"/>
<rect x="1" y="27" width="1" height="1"/>
<rect x="2" y="27" width="1" height="1"/>
<rect x="3" y="27" width="1" height="1"/>
<rect x="4" y="27" width="1" height="1"/>
<rect x="5" y="27" width="1" height="1"/>
<rect x="6" y="27" width="1" height="1"/>
<rect x="0" y="28" width="1" height="1"/>
<rect x="1" y="28" width="1" height="1"/>
<rect x="2" y="28" width="1" height="1"/>
<rect x="3" y="28" width="1" height="1"/>
<rect x="4" y="28" width="1" height="1"/>
<rect x="5" y="28" width="1" height="1"/>
<rect x="6" y="28" width="1" height="1"/>
<rect x="0" y="29" width="1" height="1"/>
<rect x="1" y="29" width="1" height="1"/>
<rect x="2" y="29" width="1" height="1"/>
<rect x="4" y="29" width="1" height="1"/>
<rect x="5" y="29" width="1" height="1"/>
<rect x="6" y="29" width="1" height="1"/>
<rect x="0" y="30" width="1" height="1"/>
<rect x="1" y="30" width="1" height="1"/>
<rect x="5" y="30" width="1" height="1"/>
<rect x="6" y="30" width="1" height="1"/>
<rect x="0" y="31" width="1" height="1"/>
<rect x="6" y="31" width="1" height="1"/>
<rect x="0" y="32" width="1" height="1"/>
<rect x="6" y="32" width="1" height="1"/>
</svg>