<?xml version="1.0" encoding="utf-8"?>
<svg version="1.1" id="layer" xmlns="http://www.w3.org/2000/svg" xmlns:xlink="http://www.w3.org/1999/xlink" x="0px" y="0px" viewBox="0 0 33 33" style="enable-background:new 0 0 33 33;" xml:space="preserve">
<rect x="14" y="11" width="1" height="1"/>
<rect x="15" y="11" width="1" height="1"/>
<rect x="13" y="12" width="1" height="1"/>
<rect x="14" y="12" width="1" height="1"/>
<rect x="15" y="12" width="1" height="1"/>
<rect x="16" y="12" width="1" height="1"/>
<rect x="17" y="12" width="1" height="1"/>
<rect x="21" y="12" width="1" height="1"/>
<rect x="12" y="13" width="1" height="1"/>
<rect x="13" y="13" width="1" height="1"/>
<rect x="14" y="13" width="1" height="1"/>
<rect x="15" y="13" width="1" height="1"/>
<rect x="16" y="13" width="1" height="1"/>
<rect x="17" y="13" width="1" height="1"/>
<rect x="18" y="13" width="1" height="1"/>
<rect x="19" y="13" width="1" height="1"/>
<rect x="20" y="13" width="1" height="1"/>
<rect x="21" y="13" width="1" height="1"/>
<rect x="9" y="14" width="1" height="1"/>
<rect x="10" y="14" width="1" height="1"/>
<rect x="11" y="14" width="1" height="1"/>
<rect x="13" y="14" width="1" height="1"/>
<rect x="14" y="14" width="1" height="1"/>
<rect x="15" y="14" width="1" height="1"/>
<rect x="16" y="14" width="1" height="1"/>
<rect x="17" y="14" width="1" height="1"/>
<rect x="18" y="14" width="1" height="1"/>
<rect x="19" y="14" width="1" height="1"/>
<rect x="20" y="14" width="1" height="1"/>
<rect x="10" y="15" width="1" height="1"/>
<rect x="11" y="15" width="1" height="1"/>
<rect x="13" y="15" width="1" height="1"/>
<rect x="14" y="15" width="1" height="1"/>
<rect x="15" y="15" width="1" height="1"/>
<rect x="16" y="15" width="1" height="1"/>
<rect x="17" y="15" width="1" height="1"/>
<rect x="18" y="15" width="1" height="1"/>
<rect x="19" y="15" width="1" height="1"/>
<rect x="20" y="15" width="1" height="1"/>
<rect x="10" y="16" width="1" height="1"/>
<rect x="11" y="16" width="1" height="1"/>
<rect x="12" y="16" width="1" height="1"/>
<rect x="13" y="16" width="1" height="1"/>
<rect x="14" y="16" width="1" height="1"/>
<rect x="15" y="16" width="1" height="1"/>
<rect x="16" y="16" width="1" height="1"/>
<rect x="17" y="16" width="1" height="1"/>
<rect x="18" y="16" width="1" height="1"/>
<rect x="19" y="16" width="1" height="1"/>
<rect x="20" y="16" width="1" height="1"/>
<rect x="21" y="16" width="1" height="1"/>
<rect x="23" y="16" width="1" height="1"/>
<rect x="10" y="17" width="1" height="1"/>
<rect x="11" y="17" width="1" height="1"/>
<rect x="13" y="17" width="1" height="1"/>
<rect x="14" y="17" width="1" height="1"/>
<rect x="15" y="17" width="1" height="1"/>
<rect x="16" y="17" width="1" height="1"/>
<rect x="17" y="17" width="1" height="1"/>
<rect x="18" y="17" width="1" height="1"/>
<rect x="19" y="17" width="1" height="1"/>
<rect x="20" y="17" width="1" height="1"/>
<rect x="21" y="17" width="1" height="1"/>
<rect x="10" y="18" width="1" height="1"/>
<rect x="13" y="18" width="1" height="1"/>
<rect x="14" y="18" width="1" height="1"/>
<rect x="15" y="18" width="1" height="1"/>
<rect x="16" y="18" width="1" height="1"/>
<rect x="17" y="18" width="1" height="1"/>
<rect x="18" y="18" width="1" height="1"/>
<rect x="19" y="18" width="1" height="1"/>
<rect x="20" y="18" width="1" height="1"/>
<rect x="13" y="19" width="1" height="1"/>
<rect x="14" y="19" width="1" height="1"/>
<rect x="15" y="19" width="1" height="1"/>
<rect x="16" y="19" width="1" height="1"/>
<rect x="17" y="19" width="1" height="1"/>
<rect x="18" y="19" width="1" height="1"/>
<rect x="19" y="19" width="1" height="1"/>
<rect x="20" y="19" width="1" height="1"/>
<rect x="21" y="19" width="1" height="1"/>
<rect x="22" y="19" width="1" height="1"/>
<rect x="23" y="19" width="1" height="1"/>
<rect x="10" y="20" width="1" height="1"/>
<rect x="11" y="20" width="1" height="1"/>
<rect x="12" y="20" width="1" height="1"/>
<rect x="13" y="20" width="1" height="1"/>
<rect x="14" y="20" width="1" height="1"/>
<rect x="15" y="20" width="1" height="1"/>
<rect x="16" y="20" width="1" height="1"/>
<rect x="17" y="20" width="1" height="1"/>
<rect x="18" y="20" width="1" height="1"/>
<rect x="19" y="20" width="1" height="1"/>
<rect x="21" y="20" width="1" height="1"/>
<rect x="22" y="20" width="1" height="1"/>
<rect x="13" y="21" width="1" height="1"/>
<rect x="14" y="21" width="1" height="1"/>
<rect x="15" y="21" width="1" height="1"/>
<rect x="16" y="21" width="1" height="1"/>
<rect x="17" y="21" width="1" height="1"/>
<rect x="18" y="21" width="1" height="1"/>
<rect x="23" y="21" width="1" height="1"/>
<rect x="13" y="22" width="1" height="1"/>
<rect x="14" y="22" width="1" height="1"/>
<rect x="15" y="22" width="1" height="1"/>
<rect x="16" y="22" width="1" height="1"/>
<rect x="17" y="22" width="1" height="1"/>
<rect x="18" y="22" width="1" height="1"/>
<rect x="13" y="23" width="1" height="1"/>
<rect x="14" y="23" width="1" height="1"/>
<rect x="15" y="23" width="1" height="1"/>
<rect x="16" y="23" width="1" height="1"/>
<rect x="17" y="23" width="1" height="1"/>
<rect x="18" y="23" width="1" height="1"/>
<rect x="14" y="24" width="1" height="1"/>
<rect x="16" y="24" width="1" height="1"/>
<rect x="17" y="24" width="1" height="1"/>
<rect x="18" y="24" width="1" height="1"/>
<rect x="19" y="24" width="1" height="1"/>
<rect x="20" y="24" width="1" height="1"/>
<rect x="22" y="24" width="1" height="1"/>
<rect x="23" y="24" width="1" height="1"/>
<rect x="18" y="25" width="1" height="1"/>
<rect x="19" y="25" width="1" height="1"/>
<rect x="20" y="25" width="1" height="1"/>
<rect x="22" y="25" width="1" height="1"/>
<rect x="23" y="25" width="1" height="1"/>
</svg>