<?xml version="1.0" encoding="utf-8"?>
<svg version="1.1" id="layer" xmlns="http://www.w3.org/2000/svg" xmlns:xlink="http://www.w3.org/1999/xlink" x="0px" y="0px" viewBox="0 0 80 32" style="enable-background:new 0 0 80 32;" xml:space="preserve">
<rect x="31" y="6" width="1" height="1"/>
<rect x="32" y="6" width="1" height="1"/>
<rect x="33" y="6" width="1" height="1"/>
<rect x="34" y="6" width="1" height="1"/>
<rect x="35" y="6" width="1" height="1"/>
<rect x="36" y="6" width="1" height="1"/>
<rect x="52" y="6" width="1" height="1"/>
<rect x="53" y="6" width="1" height="1"/>
<rect x="54" y="6" width="1" height="1"/>
<rect x="55" y="6" width="1" height="1"/>
<rect x="56" y="6" width="1" height="1"/>
<rect x="57" y="6" width="1" height="1"/>
<rect x="22" y="7" width="1" height="1"/>
<rect x="23" y="7" width="1" height="1"/>
<rect x="24" y="7" width="1" height="1"/>
<rect x="25" y="7" width="1" height="1"/>
<rect x="26" y="7" width="1" height="1"/>
<rect x="27" y="7" width="1" height="1"/>
<rect x="28" y="7" width="1" height="1"/>
<rect x="29" y="7" width="1" height="1"/>
<rect x="30" y="7" width="1" height="1"/>
<rect x="31" y="7" width="1" height="1"/>
<rect x="32" y="7" width="1" height="1"/>
<rect x="33" y="7" width="1" height="1"/>
<rect x="34" y="7" width="1" height="1"/>
<rect x="35" y="7" width="1" height="1"/>
<rect x="36" y="7" width="1" height="1"/>
<rect x="43" y="7" width="1" height="1"/>
<rect x="44" y="7" width="1" height="1"/>
<rect x="45" y="7" width="1" height="1"/>
<rect x="46" y="7" width="1" height="1"/>
<rect x="47" y="7" width="1" height="1"/>
<rect x="48" y="7" width="1" height="1"/>
<rect x="49" y="7" width="1" height="1"/>
<rect x="50" y="7" width="1" height="1"/>
<rect x="51" y="7" width="1" height="1"/>
<rect x="52" y="7" width="1" height="1"/>
<rect x="53" y="7" width="1" height="1"/>
<rect x="54" y="7" width="1" height="1"/>
<rect x="55" y="7" width="1" height="1"/>
<rect x="56" y="7" width="1" height="1"/>
<rect x="57" y="7" width="1" height="1"/>
<rect x="58" y="7" width="1" height="1"/>
<rect x="59" y="7" width="1" height="1"/>
<rect x="60" y="7" width="1" height="1"/>
<rect x="61" y="7" width="1" height="1"/>
<rect x="62" y="7" width="1" height="1"/>
<rect x="8" y="8" width="1" height="1"/>
<rect x="9" y="8" width="1" height="1"/>
<rect x="10" y="8" width="1" height="1"/>
<rect x="11" y="8" width="1" height="1"/>
<rect x="12" y="8" width="1" height="1"/>
<rect x="13" y="8" width="1" height="1"/>
<rect x="14" y="8" width="1" height="1"/>
<rect x="22" y="8" width="1" height="1"/>
<rect x="31" y="8" width="1" height="1"/>
<rect x="32" y="8" width="1" height="1"/>
<rect x="33" y="8" width="1" height="1"/>
<rect x="34" y="8" width="1" height="1"/>
<rect x="35" y="8" width="1" height="1"/>
<rect x="36" y="8" width="1" height="1"/>
<rect x="43" y="8" width="1" height="1"/>
<rect x="52" y="8" width="1" height="1"/>
<rect x="53" y="8" width="1" height="1"/>
<rect x="54" y="8" width="1" height="1"/>
<rect x="55" y="8" width="1" height="1"/>
<rect x="56" y="8" width="1" height="1"/>
<rect x="57" y="8" width="1" height="1"/>
<rect x="62" y="8" width="1" height="1"/>
<rect x="8" y="9" width="1" height="1"/>
<rect x="9" y="9" width="1" height="1"/>
<rect x="10" y="9" width="1" height="1"/>
<rect x="11" y="9" width="1" height="1"/>
<rect x="12" y="9" width="1" height="1"/>
<rect x="13" y="9" width="1" height="1"/>
<rect x="14" y="9" width="1" height="1"/>
<rect x="22" y="9" width="1" height="1"/>
<rect x="31" y="9" width="1" height="1"/>
<rect x="32" y="9" width="1" height="1"/>
<rect x="33" y="9" width="1" height="1"/>
<rect x="34" y="9" width="1" height="1"/>
<rect x="35" y="9" width="1" height="1"/>
<rect x="36" y="9" width="1" height="1"/>
<rect x="43" y="9" width="1" height="1"/>
<rect x="52" y="9" width="1" height="1"/>
<rect x="53" y="9" width="1" height="1"/>
<rect x="54" y="9" width="1" height="1"/>
<rect x="55" y="9" width="1" height="1"/>
<rect x="56" y="9" width="1" height="1"/>
<rect x="57" y="9" width="1" height="1"/>
<rect x="62" y="9" width="1" height="1"/>
<rect x="8" y="10" width="1" height="1"/>
<rect x="9" y="10" width="1" height="1"/>
<rect x="10" y="10" width="1" height="1"/>
<rect x="11" y="10" width="1" height="1"/>
<rect x="12" y="10" width="1" height="1"/>
<rect x="13" y="10" width="1" height="1"/>
<rect x="14" y="10" width="1" height="1"/>
<rect x="15" y="10" width="1" height="1"/>
<rect x="16" y="10" width="1" height="1"/>
<rect x="17" y="10" width="1" height="1"/>
<rect x="18" y="10" width="1" height="1"/>
<rect x="19" y="10" width="1" height="1"/>
<rect x="20" y="10" width="1" height="1"/>
<rect x="21" y="10" width="1" height="1"/>
<rect x="22" y="10" width="1" height="1"/>
<rect x="31" y="10" width="1" height="1"/>
<rect x="32" y="10" width="1" height="1"/>
<rect x="33" y="10" width="1" height="1"/>
<rect x="34" y="10" width="1" height="1"/>
<rect x="35" y="10" width="1" height="1"/>
<rect x="36" y="10" width="1" height="1"/>
<rect x="43" y="10" width="1" height="1"/>
<rect x="52" y="10" width="1" height="1"/>
<rect x="53" y="10" width="1" height="1"/>
<rect x="54" y="10" width="1" height="1"/>
<rect x="55" y="10" width="1" height="1"/>
<rect x="56" y="10" width="1" height="1"/>
<rect x="57" y="10" width="1" height="1"/>
<rect x="62" y="10" width="1" height="1"/>
<rect x="8" y="11" width="1" height="1"/>
<rect x="9" y="11" width="1" height="1"/>
<rect x="10" y="11" width="1" height="1"/>
<rect x="11" y="11" width="1" height="1"/>
<rect x="12" y="11" width="1" height="1"/>
<rect x="13" y="11" width="1" height="1"/>
<rect x="14" y="11" width="1" height="1"/>
<rect x="31" y="11" width="1" height="1"/>
<rect x="32" y="11" width="1" height="1"/>
<rect x="33" y="11" width="1" height="1"/>
<rect x="34" y="11" width="1" height="1"/>
<rect x="35" y="11" width="1" height="1"/>
<rect x="36" y="11" width="1" height="1"/>
<rect x="43" y="11" width="1" height="1"/>
<rect x="52" y="11" width="1" height="1"/>
<rect x="53" y="11" width="1" height="1"/>
<rect x="54" y="11" width="1" height="1"/>
<rect x="55" y="11" width="1" height="1"/>
<rect x="56" y="11" width="1" height="1"/>
<rect x="57" y="11" width="1" height="1"/>
<rect x="62" y="11" width="1" height="1"/>
<rect x="8" y="12" width="1" height="1"/>
<rect x="9" y="12" width="1" height="1"/>
<rect x="10" y="12" width="1" height="1"/>
<rect x="11" y="12" width="1" height="1"/>
<rect x="12" y="12" width="1" height="1"/>
<rect x="13" y="12" width="1" height="1"/>
<rect x="14" y="12" width="1" height="1"/>
<rect x="31" y="12" width="1" height="1"/>
<rect x="32" y="12" width="1" height="1"/>
<rect x="33" y="12" width="1" height="1"/>
<rect x="34" y="12" width="1" height="1"/>
<rect x="35" y="12" width="1" height="1"/>
<rect x="36" y="12" width="1" height="1"/>
<rect x="43" y="12" width="1" height="1"/>
<rect x="62" y="12" width="1" height="1"/>
<rect x="8" y="13" width="1" height="1"/>
<rect x="9" y="13" width="1" height="1"/>
<rect x="10" y="13" width="1" height="1"/>
<rect x="11" y="13" width="1" height="1"/>
<rect x="12" y="13" width="1" height="1"/>
<rect x="13" y="13" width="1" height="1"/>
<rect x="14" y="13" width="1" height="1"/>
<rect x="33" y="13" width="1" height="1"/>
<rect x="43" y="13" width="1" height="1"/>
<rect x="62" y="13" width="1" height="1"/>
<rect x="69" y="13" width="1" height="1"/>
<rect x="70" y="13" width="1" height="1"/>
<rect x="71" y="13" width="1" height="1"/>
<rect x="72" y="13" width="1" height="1"/>
<rect x="73" y="13" width="1" height="1"/>
<rect x="74" y="13" width="1" height="1"/>
<rect x="75" y="13" width="1" height="1"/>
<rect x="33" y="14" width="1" height="1"/>
<rect x="43" y="14" width="1" height="1"/>
<rect x="62" y="14" width="1" height="1"/>
<rect x="69" y="14" width="1" height="1"/>
<rect x="70" y="14" width="1" height="1"/>
<rect x="71" y="14" width="1" height="1"/>
<rect x="72" y="14" width="1" height="1"/>
<rect x="73" y="14" width="1" height="1"/>
<rect x="74" y="14" width="1" height="1"/>
<rect x="75" y="14" width="1" height="1"/>
<rect x="33" y="15" width="1" height="1"/>
<rect x="43" y="15" width="1" height="1"/>
<rect x="62" y="15" width="1" height="1"/>
<rect x="69" y="15" width="1" height="1"/>
<rect x="70" y="15" width="1" height="1"/>
<rect x="71" y="15" width="1" height="1"/>
<rect x="72" y="15" width="1" height="1"/>
<rect x="73" y="15" width="1" height="1"/>
<rect x="74" y="15" width="1" height="1"/>
<rect x="75" y="15" width="1" height="1"/>
<rect x="33" y="16" width="1" height="1"/>
<rect x="43" y="16" width="1" height="1"/>
<rect x="62" y="16" width="1" height="1"/>
<rect x="69" y="16" width="1" height="1"/>
<rect x="70" y="16" width="1" height="1"/>
<rect x="71" y="16" width="1" height="1"/>
<rect x="72" y="16" width="1" height="1"/>
<rect x="73" y="16" width="1" height="1"/>
<rect x="74" y="16" width="1" height="1"/>
<rect x="75" y="16" width="1" height="1"/>
<rect x="25" y="17" width="1" height="1"/>
<rect x="26" y="17" width="1" height="1"/>
<rect x="27" y="17" width="1" height="1"/>
<rect x="28" y="17" width="1" height="1"/>
<rect x="29" y="17" width="1" height="1"/>
<rect x="30" y="17" width="1" height="1"/>
<rect x="31" y="17" width="1" height="1"/>
<rect x="32" y="17" width="1" height="1"/>
<rect x="33" y="17" width="1" height="1"/>
<rect x="43" y="17" width="1" height="1"/>
<rect x="62" y="17" width="1" height="1"/>
<rect x="69" y="17" width="1" height="1"/>
<rect x="70" y="17" width="1" height="1"/>
<rect x="71" y="17" width="1" height="1"/>
<rect x="72" y="17" width="1" height="1"/>
<rect x="73" y="17" width="1" height="1"/>
<rect x="74" y="17" width="1" height="1"/>
<rect x="75" y="17" width="1" height="1"/>
<rect x="25" y="18" width="1" height="1"/>
<rect x="43" y="18" width="1" height="1"/>
<rect x="62" y="18" width="1" height="1"/>
<rect x="63" y="18" width="1" height="1"/>
<rect x="64" y="18" width="1" height="1"/>
<rect x="65" y="18" width="1" height="1"/>
<rect x="66" y="18" width="1" height="1"/>
<rect x="67" y="18" width="1" height="1"/>
<rect x="68" y="18" width="1" height="1"/>
<rect x="69" y="18" width="1" height="1"/>
<rect x="70" y="18" width="1" height="1"/>
<rect x="71" y="18" width="1" height="1"/>
<rect x="72" y="18" width="1" height="1"/>
<rect x="73" y="18" width="1" height="1"/>
<rect x="74" y="18" width="1" height="1"/>
<rect x="75" y="18" width="1" height="1"/>
<rect x="25" y="19" width="1" height="1"/>
<rect x="43" y="19" width="1" height="1"/>
<rect x="69" y="19" width="1" height="1"/>
<rect x="70" y="19" width="1" height="1"/>
<rect x="71" y="19" width="1" height="1"/>
<rect x="72" y="19" width="1" height="1"/>
<rect x="73" y="19" width="1" height="1"/>
<rect x="74" y="19" width="1" height="1"/>
<rect x="75" y="19" width="1" height="1"/>
<rect x="25" y="20" width="1" height="1"/>
<rect x="31" y="20" width="1" height="1"/>
<rect x="32" y="20" width="1" height="1"/>
<rect x="33" y="20" width="1" height="1"/>
<rect x="34" y="20" width="1" height="1"/>
<rect x="35" y="20" width="1" height="1"/>
<rect x="36" y="20" width="1" height="1"/>
<rect x="37" y="20" width="1" height="1"/>
<rect x="38" y="20" width="1" height="1"/>
<rect x="39" y="20" width="1" height="1"/>
<rect x="40" y="20" width="1" height="1"/>
<rect x="43" y="20" width="1" height="1"/>
<rect x="25" y="21" width="1" height="1"/>
<rect x="31" y="21" width="1" height="1"/>
<rect x="34" y="21" width="1" height="1"/>
<rect x="35" y="21" width="1" height="1"/>
<rect x="36" y="21" width="1" height="1"/>
<rect x="37" y="21" width="1" height="1"/>
<rect x="38" y="21" width="1" height="1"/>
<rect x="39" y="21" width="1" height="1"/>
<rect x="40" y="21" width="1" height="1"/>
<rect x="41" y="21" width="1" height="1"/>
<rect x="42" y="21" width="1" height="1"/>
<rect x="43" y="21" width="1" height="1"/>
<rect x="25" y="22" width="1" height="1"/>
<rect x="26" y="22" width="1" height="1"/>
<rect x="27" y="22" width="1" height="1"/>
<rect x="28" y="22" width="1" height="1"/>
<rect x="29" y="22" width="1" height="1"/>
<rect x="30" y="22" width="1" height="1"/>
<rect x="31" y="22" width="1" height="1"/>
<rect x="34" y="22" width="1" height="1"/>
<rect x="35" y="22" width="1" height="1"/>
<rect x="36" y="22" width="1" height="1"/>
<rect x="37" y="22" width="1" height="1"/>
<rect x="38" y="22" width="1" height="1"/>
<rect x="39" y="22" width="1" height="1"/>
<rect x="40" y="22" width="1" height="1"/>
<rect x="34" y="23" width="1" height="1"/>
<rect x="35" y="23" width="1" height="1"/>
<rect x="36" y="23" width="1" height="1"/>
<rect x="37" y="23" width="1" height="1"/>
<rect x="38" y="23" width="1" height="1"/>
<rect x="39" y="23" width="1" height="1"/>
<rect x="40" y="23" width="1" height="1"/>
<rect x="34" y="24" width="1" height="1"/>
<rect x="35" y="24" width="1" height="1"/>
<rect x="36" y="24" width="1" height="1"/>
<rect x="37" y="24" width="1" height="1"/>
<rect x="38" y="24" width="1" height="1"/>
<rect x="39" y="24" width="1" height="1"/>
<rect x="40" y="24" width="1" height="1"/>
<rect x="34" y="25" width="1" height="1"/>
<rect x="35" y="25" width="1" height="1"/>
<rect x="36" y="25" width="1" height="1"/>
<rect x="37" y="25" width="1" height="1"/>
<rect x="38" y="25" width="1" height="1"/>
<rect x="39" y="25" width="1" height="1"/>
<rect x="40" y="25" width="1" height="1"/>
</svg>