<?xml version="1.0" encoding="utf-8"?>
<svg version="1.1" id="layer" xmlns="http://www.w3.org/2000/svg" xmlns:xlink="http://www.w3.org/1999/xlink" x="0px" y="0px" viewBox="0 0 80 32" style="enable-background:new 0 0 80 32;" xml:space="preserve">
<rect x="55" y="0" width="1" height="1"/>
<rect x="56" y="0" width="1" height="1"/>
<rect x="57" y="0" width="1" height="1"/>
<rect x="55" y="1" width="1" height="1"/>
<rect x="56" y="1" width="1" height="1"/>
<rect x="57" y="1" width="1" height="1"/>
<rect x="26" y="2" width="1" height="1"/>
<rect x="27" y="2" width="1" height="1"/>
<rect x="28" y="2" width="1" height="1"/>
<rect x="29" y="2" width="1" height="1"/>
<rect x="30" y="2" width="1" height="1"/>
<rect x="31" y="2" width="1" height="1"/>
<rect x="32" y="2" width="1" height="1"/>
<rect x="33" y="2" width="1" height="1"/>
<rect x="55" y="2" width="1" height="1"/>
<rect x="56" y="2" width="1" height="1"/>
<rect x="57" y="2" width="1" height="1"/>
<rect x="58" y="2" width="1" height="1"/>
<rect x="59" y="2" width="1" height="1"/>
<rect x="60" y="2" width="1" height="1"/>
<rect x="61" y="2" width="1" height="1"/>
<rect x="26" y="3" width="1" height="1"/>
<rect x="27" y="3" width="1" height="1"/>
<rect x="28" y="3" width="1" height="1"/>
<rect x="29" y="3" width="1" height="1"/>
<rect x="30" y="3" width="1" height="1"/>
<rect x="31" y="3" width="1" height="1"/>
<rect x="32" y="3" width="1" height="1"/>
<rect x="33" y="3" width="1" height="1"/>
<rect x="34" y="3" width="1" height="1"/>
<rect x="35" y="3" width="1" height="1"/>
<rect x="55" y="3" width="1" height="1"/>
<rect x="56" y="3" width="1" height="1"/>
<rect x="57" y="3" width="1" height="1"/>
<rect x="58" y="3" width="1" height="1"/>
<rect x="59" y="3" width="1" height="1"/>
<rect x="60" y="3" width="1" height="1"/>
<rect x="61" y="3" width="1" height="1"/>
<rect x="26" y="4" width="1" height="1"/>
<rect x="27" y="4" width="1" height="1"/>
<rect x="28" y="4" width="1" height="1"/>
<rect x="29" y="4" width="1" height="1"/>
<rect x="30" y="4" width="1" height="1"/>
<rect x="31" y="4" width="1" height="1"/>
<rect x="32" y="4" width="1" height="1"/>
<rect x="33" y="4" width="1" height="1"/>
<rect x="34" y="4" width="1" height="1"/>
<rect x="35" y="4" width="1" height="1"/>
<rect x="55" y="4" width="1" height="1"/>
<rect x="56" y="4" width="1" height="1"/>
<rect x="57" y="4" width="1" height="1"/>
<rect x="58" y="4" width="1" height="1"/>
<rect x="59" y="4" width="1" height="1"/>
<rect x="60" y="4" width="1" height="1"/>
<rect x="61" y="4" width="1" height="1"/>
<rect x="21" y="5" width="1" height="1"/>
<rect x="22" y="5" width="1" height="1"/>
<rect x="23" y="5" width="1" height="1"/>
<rect x="24" y="5" width="1" height="1"/>
<rect x="25" y="5" width="1" height="1"/>
<rect x="26" y="5" width="1" height="1"/>
<rect x="27" y="5" width="1" height="1"/>
<rect x="28" y="5" width="1" height="1"/>
<rect x="29" y="5" width="1" height="1"/>
<rect x="30" y="5" width="1" height="1"/>
<rect x="31" y="5" width="1" height="1"/>
<rect x="32" y="5" width="1" height="1"/>
<rect x="33" y="5" width="1" height="1"/>
<rect x="34" y="5" width="1" height="1"/>
<rect x="35" y="5" width="1" height="1"/>
<rect x="55" y="5" width="1" height="1"/>
<rect x="56" y="5" width="1" height="1"/>
<rect x="57" y="5" width="1" height="1"/>
<rect x="60" y="5" width="1" height="1"/>
<rect x="61" y="5" width="1" height="1"/>
<rect x="62" y="5" width="1" height="1"/>
<rect x="63" y="5" width="1" height="1"/>
<rect x="64" y="5" width="1" height="1"/>
<rect x="65" y="5" width="1" height="1"/>
<rect x="66" y="5" width="1" height="1"/>
<rect x="67" y="5" width="1" height="1"/>
<rect x="68" y="5" width="1" height="1"/>
<rect x="21" y="6" width="1" height="1"/>
<rect x="22" y="6" width="1" height="1"/>
<rect x="23" y="6" width="1" height="1"/>
<rect x="24" y="6" width="1" height="1"/>
<rect x="25" y="6" width="1" height="1"/>
<rect x="26" y="6" width="1" height="1"/>
<rect x="27" y="6" width="1" height="1"/>
<rect x="28" y="6" width="1" height="1"/>
<rect x="29" y="6" width="1" height="1"/>
<rect x="30" y="6" width="1" height="1"/>
<rect x="31" y="6" width="1" height="1"/>
<rect x="32" y="6" width="1" height="1"/>
<rect x="33" y="6" width="1" height="1"/>
<rect x="34" y="6" width="1" height="1"/>
<rect x="35" y="6" width="1" height="1"/>
<rect x="55" y="6" width="1" height="1"/>
<rect x="56" y="6" width="1" height="1"/>
<rect x="57" y="6" width="1" height="1"/>
<rect x="60" y="6" width="1" height="1"/>
<rect x="61" y="6" width="1" height="1"/>
<rect x="62" y="6" width="1" height="1"/>
<rect x="63" y="6" width="1" height="1"/>
<rect x="64" y="6" width="1" height="1"/>
<rect x="65" y="6" width="1" height="1"/>
<rect x="66" y="6" width="1" height="1"/>
<rect x="67" y="6" width="1" height="1"/>
<rect x="68" y="6" width="1" height="1"/>
<rect x="21" y="7" width="1" height="1"/>
<rect x="22" y="7" width="1" height="1"/>
<rect x="23" y="7" width="1" height="1"/>
<rect x="24" y="7" width="1" height="1"/>
<rect x="25" y="7" width="1" height="1"/>
<rect x="26" y="7" width="1" height="1"/>
<rect x="27" y="7" width="1" height="1"/>
<rect x="28" y="7" width="1" height="1"/>
<rect x="29" y="7" width="1" height="1"/>
<rect x="30" y="7" width="1" height="1"/>
<rect x="31" y="7" width="1" height="1"/>
<rect x="32" y="7" width="1" height="1"/>
<rect x="33" y="7" width="1" height="1"/>
<rect x="34" y="7" width="1" height="1"/>
<rect x="35" y="7" width="1" height="1"/>
<rect x="55" y="7" width="1" height="1"/>
<rect x="56" y="7" width="1" height="1"/>
<rect x="57" y="7" width="1" height="1"/>
<rect x="60" y="7" width="1" height="1"/>
<rect x="61" y="7" width="1" height="1"/>
<rect x="62" y="7" width="1" height="1"/>
<rect x="63" y="7" width="1" height="1"/>
<rect x="64" y="7" width="1" height="1"/>
<rect x="65" y="7" width="1" height="1"/>
<rect x="66" y="7" width="1" height="1"/>
<rect x="67" y="7" width="1" height="1"/>
<rect x="68" y="7" width="1" height="1"/>
<rect x="26" y="8" width="1" height="1"/>
<rect x="27" y="8" width="1" height="1"/>
<rect x="28" y="8" width="1" height="1"/>
<rect x="29" y="8" width="1" height="1"/>
<rect x="30" y="8" width="1" height="1"/>
<rect x="31" y="8" width="1" height="1"/>
<rect x="32" y="8" width="1" height="1"/>
<rect x="33" y="8" width="1" height="1"/>
<rect x="34" y="8" width="1" height="1"/>
<rect x="35" y="8" width="1" height="1"/>
<rect x="55" y="8" width="1" height="1"/>
<rect x="56" y="8" width="1" height="1"/>
<rect x="57" y="8" width="1" height="1"/>
<rect x="60" y="8" width="1" height="1"/>
<rect x="61" y="8" width="1" height="1"/>
<rect x="62" y="8" width="1" height="1"/>
<rect x="63" y="8" width="1" height="1"/>
<rect x="64" y="8" width="1" height="1"/>
<rect x="33" y="9" width="1" height="1"/>
<rect x="34" y="9" width="1" height="1"/>
<rect x="35" y="9" width="1" height="1"/>
<rect x="55" y="9" width="1" height="1"/>
<rect x="56" y="9" width="1" height="1"/>
<rect x="57" y="9" width="1" height="1"/>
<rect x="59" y="9" width="1" height="1"/>
<rect x="60" y="9" width="1" height="1"/>
<rect x="61" y="9" width="1" height="1"/>
<rect x="62" y="9" width="1" height="1"/>
<rect x="63" y="9" width="1" height="1"/>
<rect x="64" y="9" width="1" height="1"/>
<rect x="33" y="10" width="1" height="1"/>
<rect x="34" y="10" width="1" height="1"/>
<rect x="35" y="10" width="1" height="1"/>
<rect x="55" y="10" width="1" height="1"/>
<rect x="56" y="10" width="1" height="1"/>
<rect x="57" y="10" width="1" height="1"/>
<rect x="59" y="10" width="1" height="1"/>
<rect x="60" y="10" width="1" height="1"/>
<rect x="61" y="10" width="1" height="1"/>
<rect x="62" y="10" width="1" height="1"/>
<rect x="63" y="10" width="1" height="1"/>
<rect x="33" y="11" width="1" height="1"/>
<rect x="34" y="11" width="1" height="1"/>
<rect x="35" y="11" width="1" height="1"/>
<rect x="53" y="11" width="1" height="1"/>
<rect x="54" y="11" width="1" height="1"/>
<rect x="55" y="11" width="1" height="1"/>
<rect x="56" y="11" width="1" height="1"/>
<rect x="57" y="11" width="1" height="1"/>
<rect x="58" y="11" width="1" height="1"/>
<rect x="59" y="11" width="1" height="1"/>
<rect x="60" y="11" width="1" height="1"/>
<rect x="61" y="11" width="1" height="1"/>
<rect x="62" y="11" width="1" height="1"/>
<rect x="63" y="11" width="1" height="1"/>
<rect x="33" y="12" width="1" height="1"/>
<rect x="34" y="12" width="1" height="1"/>
<rect x="35" y="12" width="1" height="1"/>
<rect x="53" y="12" width="1" height="1"/>
<rect x="54" y="12" width="1" height="1"/>
<rect x="55" y="12" width="1" height="1"/>
<rect x="56" y="12" width="1" height="1"/>
<rect x="57" y="12" width="1" height="1"/>
<rect x="58" y="12" width="1" height="1"/>
<rect x="59" y="12" width="1" height="1"/>
<rect x="60" y="12" width="1" height="1"/>
<rect x="61" y="12" width="1" height="1"/>
<rect x="62" y="12" width="1" height="1"/>
<rect x="63" y="12" width="1" height="1"/>
<rect x="33" y="13" width="1" height="1"/>
<rect x="34" y="13" width="1" height="1"/>
<rect x="35" y="13" width="1" height="1"/>
<rect x="53" y="13" width="1" height="1"/>
<rect x="54" y="13" width="1" height="1"/>
<rect x="55" y="13" width="1" height="1"/>
<rect x="56" y="13" width="1" height="1"/>
<rect x="57" y="13" width="1" height="1"/>
<rect x="58" y="13" width="1" height="1"/>
<rect x="59" y="13" width="1" height="1"/>
<rect x="60" y="13" width="1" height="1"/>
<rect x="61" y="13" width="1" height="1"/>
<rect x="62" y="13" width="1" height="1"/>
<rect x="63" y="13" width="1" height="1"/>
<rect x="33" y="14" width="1" height="1"/>
<rect x="34" y="14" width="1" height="1"/>
<rect x="35" y="14" width="1" height="1"/>
<rect x="44" y="14" width="1" height="1"/>
<rect x="45" y="14" width="1" height="1"/>
<rect x="46" y="14" width="1" height="1"/>
<rect x="53" y="14" width="1" height="1"/>
<rect x="54" y="14" width="1" height="1"/>
<rect x="55" y="14" width="1" height="1"/>
<rect x="56" y="14" width="1" height="1"/>
<rect x="57" y="14" width="1" height="1"/>
<rect x="58" y="14" width="1" height="1"/>
<rect x="59" y="14" width="1" height="1"/>
<rect x="60" y="14" width="1" height="1"/>
<rect x="61" y="14" width="1" height="1"/>
<rect x="62" y="14" width="1" height="1"/>
<rect x="63" y="14" width="1" height="1"/>
<rect x="33" y="15" width="1" height="1"/>
<rect x="34" y="15" width="1" height="1"/>
<rect x="35" y="15" width="1" height="1"/>
<rect x="44" y="15" width="1" height="1"/>
<rect x="45" y="15" width="1" height="1"/>
<rect x="46" y="15" width="1" height="1"/>
<rect x="53" y="15" width="1" height="1"/>
<rect x="54" y="15" width="1" height="1"/>
<rect x="55" y="15" width="1" height="1"/>
<rect x="56" y="15" width="1" height="1"/>
<rect x="57" y="15" width="1" height="1"/>
<rect x="58" y="15" width="1" height="1"/>
<rect x="59" y="15" width="1" height="1"/>
<rect x="60" y="15" width="1" height="1"/>
<rect x="61" y="15" width="1" height="1"/>
<rect x="62" y="15" width="1" height="1"/>
<rect x="63" y="15" width="1" height="1"/>
<rect x="64" y="15" width="1" height="1"/>
<rect x="65" y="15" width="1" height="1"/>
<rect x="66" y="15" width="1" height="1"/>
<rect x="67" y="15" width="1" height="1"/>
<rect x="68" y="15" width="1" height="1"/>
<rect x="69" y="15" width="1" height="1"/>
<rect x="70" y="15" width="1" height="1"/>
<rect x="71" y="15" width="1" height="1"/>
<rect x="72" y="15" width="1" height="1"/>
<rect x="73" y="15" width="1" height="1"/>
<rect x="74" y="15" width="1" height="1"/>
<rect x="33" y="16" width="1" height="1"/>
<rect x="34" y="16" width="1" height="1"/>
<rect x="35" y="16" width="1" height="1"/>
<rect x="37" y="16" width="1" height="1"/>
<rect x="38" y="16" width="1" height="1"/>
<rect x="39" y="16" width="1" height="1"/>
<rect x="40" y="16" width="1" height="1"/>
<rect x="41" y="16" width="1" height="1"/>
<rect x="42" y="16" width="1" height="1"/>
<rect x="43" y="16" width="1" height="1"/>
<rect x="44" y="16" width="1" height="1"/>
<rect x="45" y="16" width="1" height="1"/>
<rect x="46" y="16" width="1" height="1"/>
<rect x="47" y="16" width="1" height="1"/>
<rect x="48" y="16" width="1" height="1"/>
<rect x="49" y="16" width="1" height="1"/>
<rect x="50" y="16" width="1" height="1"/>
<rect x="51" y="16" width="1" height="1"/>
<rect x="52" y="16" width="1" height="1"/>
<rect x="53" y="16" width="1" height="1"/>
<rect x="54" y="16" width="1" height="1"/>
<rect x="55" y="16" width="1" height="1"/>
<rect x="56" y="16" width="1" height="1"/>
<rect x="57" y="16" width="1" height="1"/>
<rect x="58" y="16" width="1" height="1"/>
<rect x="59" y="16" width="1" height="1"/>
<rect x="60" y="16" width="1" height="1"/>
<rect x="61" y="16" width="1" height="1"/>
<rect x="62" y="16" width="1" height="1"/>
<rect x="63" y="16" width="1" height="1"/>
<rect x="64" y="16" width="1" height="1"/>
<rect x="65" y="16" width="1" height="1"/>
<rect x="66" y="16" width="1" height="1"/>
<rect x="67" y="16" width="1" height="1"/>
<rect x="68" y="16" width="1" height="1"/>
<rect x="69" y="16" width="1" height="1"/>
<rect x="70" y="16" width="1" height="1"/>
<rect x="71" y="16" width="1" height="1"/>
<rect x="72" y="16" width="1" height="1"/>
<rect x="73" y="16" width="1" height="1"/>
<rect x="74" y="16" width="1" height="1"/>
<rect x="33" y="17" width="1" height="1"/>
<rect x="34" y="17" width="1" height="1"/>
<rect x="35" y="17" width="1" height="1"/>
<rect x="37" y="17" width="1" height="1"/>
<rect x="38" y="17" width="1" height="1"/>
<rect x="39" y="17" width="1" height="1"/>
<rect x="40" y="17" width="1" height="1"/>
<rect x="41" y="17" width="1" height="1"/>
<rect x="42" y="17" width="1" height="1"/>
<rect x="43" y="17" width="1" height="1"/>
<rect x="44" y="17" width="1" height="1"/>
<rect x="45" y="17" width="1" height="1"/>
<rect x="46" y="17" width="1" height="1"/>
<rect x="47" y="17" width="1" height="1"/>
<rect x="48" y="17" width="1" height="1"/>
<rect x="49" y="17" width="1" height="1"/>
<rect x="50" y="17" width="1" height="1"/>
<rect x="51" y="17" width="1" height="1"/>
<rect x="52" y="17" width="1" height="1"/>
<rect x="53" y="17" width="1" height="1"/>
<rect x="54" y="17" width="1" height="1"/>
<rect x="55" y="17" width="1" height="1"/>
<rect x="56" y="17" width="1" height="1"/>
<rect x="57" y="17" width="1" height="1"/>
<rect x="58" y="17" width="1" height="1"/>
<rect x="59" y="17" width="1" height="1"/>
<rect x="60" y="17" width="1" height="1"/>
<rect x="61" y="17" width="1" height="1"/>
<rect x="62" y="17" width="1" height="1"/>
<rect x="63" y="17" width="1" height="1"/>
<rect x="64" y="17" width="1" height="1"/>
<rect x="65" y="17" width="1" height="1"/>
<rect x="66" y="17" width="1" height="1"/>
<rect x="67" y="17" width="1" height="1"/>
<rect x="68" y="17" width="1" height="1"/>
<rect x="69" y="17" width="1" height="1"/>
<rect x="70" y="17" width="1" height="1"/>
<rect x="71" y="17" width="1" height="1"/>
<rect x="72" y="17" width="1" height="1"/>
<rect x="73" y="17" width="1" height="1"/>
<rect x="74" y="17" width="1" height="1"/>
<rect x="33" y="18" width="1" height="1"/>
<rect x="34" y="18" width="1" height="1"/>
<rect x="35" y="18" width="1" height="1"/>
<rect x="37" y="18" width="1" height="1"/>
<rect x="38" y="18" width="1" height="1"/>
<rect x="39" y="18" width="1" height="1"/>
<rect x="40" y="18" width="1" height="1"/>
<rect x="41" y="18" width="1" height="1"/>
<rect x="42" y="18" width="1" height="1"/>
<rect x="43" y="18" width="1" height="1"/>
<rect x="44" y="18" width="1" height="1"/>
<rect x="45" y="18" width="1" height="1"/>
<rect x="46" y="18" width="1" height="1"/>
<rect x="47" y="18" width="1" height="1"/>
<rect x="48" y="18" width="1" height="1"/>
<rect x="49" y="18" width="1" height="1"/>
<rect x="50" y="18" width="1" height="1"/>
<rect x="51" y="18" width="1" height="1"/>
<rect x="52" y="18" width="1" height="1"/>
<rect x="53" y="18" width="1" height="1"/>
<rect x="54" y="18" width="1" height="1"/>
<rect x="55" y="18" width="1" height="1"/>
<rect x="56" y="18" width="1" height="1"/>
<rect x="57" y="18" width="1" height="1"/>
<rect x="58" y="18" width="1" height="1"/>
<rect x="59" y="18" width="1" height="1"/>
<rect x="60" y="18" width="1" height="1"/>
<rect x="61" y="18" width="1" height="1"/>
<rect x="62" y="18" width="1" height="1"/>
<rect x="63" y="18" width="1" height="1"/>
<rect x="29" y="19" width="1" height="1"/>
<rect x="30" y="19" width="1" height="1"/>
<rect x="31" y="19" width="1" height="1"/>
<rect x="32" y="19" width="1" height="1"/>
<rect x="33" y="19" width="1" height="1"/>
<rect x="34" y="19" width="1" height="1"/>
<rect x="35" y="19" width="1" height="1"/>
<rect x="36" y="19" width="1" height="1"/>
<rect x="37" y="19" width="1" height="1"/>
<rect x="38" y="19" width="1" height="1"/>
<rect x="39" y="19" width="1" height="1"/>
<rect x="40" y="19" width="1" height="1"/>
<rect x="41" y="19" width="1" height="1"/>
<rect x="42" y="19" width="1" height="1"/>
<rect x="43" y="19" width="1" height="1"/>
<rect x="44" y="19" width="1" height="1"/>
<rect x="45" y="19" width="1" height="1"/>
<rect x="46" y="19" width="1" height="1"/>
<rect x="47" y="19" width="1" height="1"/>
<rect x="48" y="19" width="1" height="1"/>
<rect x="49" y="19" width="1" height="1"/>
<rect x="50" y="19" width="1" height="1"/>
<rect x="51" y="19" width="1" height="1"/>
<rect x="52" y="19" width="1" height="1"/>
<rect x="53" y="19" width="1" height="1"/>
<rect x="54" y="19" width="1" height="1"/>
<rect x="55" y="19" width="1" height="1"/>
<rect x="56" y="19" width="1" height="1"/>
<rect x="57" y="19" width="1" height="1"/>
<rect x="58" y="19" width="1" height="1"/>
<rect x="59" y="19" width="1" height="1"/>
<rect x="60" y="19" width="1" height="1"/>
<rect x="61" y="19" width="1" height="1"/>
<rect x="62" y="19" width="1" height="1"/>
<rect x="63" y="19" width="1" height="1"/>
<rect x="29" y="20" width="1" height="1"/>
<rect x="30" y="20" width="1" height="1"/>
<rect x="31" y="20" width="1" height="1"/>
<rect x="32" y="20" width="1" height="1"/>
<rect x="33" y="20" width="1" height="1"/>
<rect x="34" y="20" width="1" height="1"/>
<rect x="35" y="20" width="1" height="1"/>
<rect x="36" y="20" width="1" height="1"/>
<rect x="37" y="20" width="1" height="1"/>
<rect x="38" y="20" width="1" height="1"/>
<rect x="39" y="20" width="1" height="1"/>
<rect x="40" y="20" width="1" height="1"/>
<rect x="41" y="20" width="1" height="1"/>
<rect x="42" y="20" width="1" height="1"/>
<rect x="43" y="20" width="1" height="1"/>
<rect x="44" y="20" width="1" height="1"/>
<rect x="45" y="20" width="1" height="1"/>
<rect x="46" y="20" width="1" height="1"/>
<rect x="47" y="20" width="1" height="1"/>
<rect x="48" y="20" width="1" height="1"/>
<rect x="49" y="20" width="1" height="1"/>
<rect x="50" y="20" width="1" height="1"/>
<rect x="51" y="20" width="1" height="1"/>
<rect x="52" y="20" width="1" height="1"/>
<rect x="53" y="20" width="1" height="1"/>
<rect x="29" y="21" width="1" height="1"/>
<rect x="30" y="21" width="1" height="1"/>
<rect x="31" y="21" width="1" height="1"/>
<rect x="32" y="21" width="1" height="1"/>
<rect x="33" y="21" width="1" height="1"/>
<rect x="34" y="21" width="1" height="1"/>
<rect x="35" y="21" width="1" height="1"/>
<rect x="36" y="21" width="1" height="1"/>
<rect x="37" y="21" width="1" height="1"/>
<rect x="38" y="21" width="1" height="1"/>
<rect x="39" y="21" width="1" height="1"/>
<rect x="40" y="21" width="1" height="1"/>
<rect x="41" y="21" width="1" height="1"/>
<rect x="42" y="21" width="1" height="1"/>
<rect x="43" y="21" width="1" height="1"/>
<rect x="44" y="21" width="1" height="1"/>
<rect x="45" y="21" width="1" height="1"/>
<rect x="46" y="21" width="1" height="1"/>
<rect x="47" y="21" width="1" height="1"/>
<rect x="48" y="21" width="1" height="1"/>
<rect x="49" y="21" width="1" height="1"/>
<rect x="50" y="21" width="1" height="1"/>
<rect x="51" y="21" width="1" height="1"/>
<rect x="52" y="21" width="1" height="1"/>
<rect x="53" y="21" width="1" height="1"/>
<rect x="30" y="22" width="1" height="1"/>
<rect x="31" y="22" width="1" height="1"/>
<rect x="32" y="22" width="1" height="1"/>
<rect x="33" y="22" width="1" height="1"/>
<rect x="34" y="22" width="1" height="1"/>
<rect x="37" y="22" width="1" height="1"/>
<rect x="38" y="22" width="1" height="1"/>
<rect x="39" y="22" width="1" height="1"/>
<rect x="40" y="22" width="1" height="1"/>
<rect x="41" y="22" width="1" height="1"/>
<rect x="42" y="22" width="1" height="1"/>
<rect x="43" y="22" width="1" height="1"/>
<rect x="44" y="22" width="1" height="1"/>
<rect x="45" y="22" width="1" height="1"/>
<rect x="46" y="22" width="1" height="1"/>
<rect x="47" y="22" width="1" height="1"/>
<rect x="48" y="22" width="1" height="1"/>
<rect x="49" y="22" width="1" height="1"/>
<rect x="50" y="22" width="1" height="1"/>
<rect x="51" y="22" width="1" height="1"/>
<rect x="52" y="22" width="1" height="1"/>
<rect x="53" y="22" width="1" height="1"/>
<rect x="30" y="23" width="1" height="1"/>
<rect x="31" y="23" width="1" height="1"/>
<rect x="32" y="23" width="1" height="1"/>
<rect x="33" y="23" width="1" height="1"/>
<rect x="34" y="23" width="1" height="1"/>
<rect x="40" y="23" width="1" height="1"/>
<rect x="41" y="23" width="1" height="1"/>
<rect x="42" y="23" width="1" height="1"/>
<rect x="43" y="23" width="1" height="1"/>
<rect x="44" y="23" width="1" height="1"/>
<rect x="45" y="23" width="1" height="1"/>
<rect x="46" y="23" width="1" height="1"/>
<rect x="47" y="23" width="1" height="1"/>
<rect x="48" y="23" width="1" height="1"/>
<rect x="49" y="23" width="1" height="1"/>
<rect x="50" y="23" width="1" height="1"/>
<rect x="51" y="23" width="1" height="1"/>
<rect x="52" y="23" width="1" height="1"/>
<rect x="53" y="23" width="1" height="1"/>
<rect x="30" y="24" width="1" height="1"/>
<rect x="31" y="24" width="1" height="1"/>
<rect x="32" y="24" width="1" height="1"/>
<rect x="33" y="24" width="1" height="1"/>
<rect x="34" y="24" width="1" height="1"/>
<rect x="40" y="24" width="1" height="1"/>
<rect x="41" y="24" width="1" height="1"/>
<rect x="42" y="24" width="1" height="1"/>
<rect x="43" y="24" width="1" height="1"/>
<rect x="44" y="24" width="1" height="1"/>
<rect x="45" y="24" width="1" height="1"/>
<rect x="46" y="24" width="1" height="1"/>
<rect x="47" y="24" width="1" height="1"/>
<rect x="48" y="24" width="1" height="1"/>
<rect x="49" y="24" width="1" height="1"/>
<rect x="50" y="24" width="1" height="1"/>
<rect x="51" y="24" width="1" height="1"/>
<rect x="52" y="24" width="1" height="1"/>
<rect x="30" y="25" width="1" height="1"/>
<rect x="31" y="25" width="1" height="1"/>
<rect x="32" y="25" width="1" height="1"/>
<rect x="33" y="25" width="1" height="1"/>
<rect x="34" y="25" width="1" height="1"/>
<rect x="40" y="25" width="1" height="1"/>
<rect x="41" y="25" width="1" height="1"/>
<rect x="42" y="25" width="1" height="1"/>
<rect x="43" y="25" width="1" height="1"/>
<rect x="44" y="25" width="1" height="1"/>
<rect x="45" y="25" width="1" height="1"/>
<rect x="46" y="25" width="1" height="1"/>
<rect x="47" y="25" width="1" height="1"/>
<rect x="48" y="25" width="1" height="1"/>
<rect x="49" y="25" width="1" height="1"/>
<rect x="50" y="25" width="1" height="1"/>
<rect x="51" y="25" width="1" height="1"/>
<rect x="52" y="25" width="1" height="1"/>
<rect x="53" y="25" width="1" height="1"/>
<rect x="54" y="25" width="1" height="1"/>
<rect x="55" y="25" width="1" height="1"/>
<rect x="56" y="25" width="1" height="1"/>
<rect x="57" y="25" width="1" height="1"/>
<rect x="58" y="25" width="1" height="1"/>
<rect x="59" y="25" width="1" height="1"/>
<rect x="60" y="25" width="1" height="1"/>
<rect x="30" y="26" width="1" height="1"/>
<rect x="31" y="26" width="1" height="1"/>
<rect x="32" y="26" width="1" height="1"/>
<rect x="33" y="26" width="1" height="1"/>
<rect x="34" y="26" width="1" height="1"/>
<rect x="40" y="26" width="1" height="1"/>
<rect x="41" y="26" width="1" height="1"/>
<rect x="42" y="26" width="1" height="1"/>
<rect x="43" y="26" width="1" height="1"/>
<rect x="44" y="26" width="1" height="1"/>
<rect x="45" y="26" width="1" height="1"/>
<rect x="46" y="26" width="1" height="1"/>
<rect x="47" y="26" width="1" height="1"/>
<rect x="48" y="26" width="1" height="1"/>
<rect x="49" y="26" width="1" height="1"/>
<rect x="50" y="26" width="1" height="1"/>
<rect x="51" y="26" width="1" height="1"/>
<rect x="52" y="26" width="1" height="1"/>
<rect x="53" y="26" width="1" height="1"/>
<rect x="54" y="26" width="1" height="1"/>
<rect x="55" y="26" width="1" height="1"/>
<rect x="56" y="26" width="1" height="1"/>
<rect x="57" y="26" width="1" height="1"/>
<rect x="58" y="26" width="1" height="1"/>
<rect x="59" y="26" width="1" height="1"/>
<rect x="60" y="26" width="1" height="1"/>
<rect x="30" y="27" width="1" height="1"/>
<rect x="31" y="27" width="1" height="1"/>
<rect x="32" y="27" width="1" height="1"/>
<rect x="33" y="27" width="1" height="1"/>
<rect x="34" y="27" width="1" height="1"/>
<rect x="46" y="27" width="1" height="1"/>
<rect x="47" y="27" width="1" height="1"/>
<rect x="48" y="27" width="1" height="1"/>
<rect x="49" y="27" width="1" height="1"/>
<rect x="50" y="27" width="1" height="1"/>
<rect x="51" y="27" width="1" height="1"/>
<rect x="52" y="27" width="1" height="1"/>
<rect x="53" y="27" width="1" height="1"/>
<rect x="54" y="27" width="1" height="1"/>
<rect x="55" y="27" width="1" height="1"/>
<rect x="56" y="27" width="1" height="1"/>
<rect x="57" y="27" width="1" height="1"/>
<rect x="58" y="27" width="1" height="1"/>
<rect x="59" y="27" width="1" height="1"/>
<rect x="60" y="27" width="1" height="1"/>
<rect x="30" y="28" width="1" height="1"/>
<rect x="31" y="28" width="1" height="1"/>
<rect x="32" y="28" width="1" height="1"/>
<rect x="33" y="28" width="1" height="1"/>
<rect x="34" y="28" width="1" height="1"/>
<rect x="46" y="28" width="1" height="1"/>
<rect x="47" y="28" width="1" height="1"/>
<rect x="48" y="28" width="1" height="1"/>
<rect x="49" y="28" width="1" height="1"/>
<rect x="50" y="28" width="1" height="1"/>
<rect x="46" y="29" width="1" height="1"/>
<rect x="47" y="29" width="1" height="1"/>
<rect x="48" y="29" width="1" height="1"/>
<rect x="49" y="29" width="1" height="1"/>
<rect x="50" y="29" width="1" height="1"/>
<rect x="46" y="30" width="1" height="1"/>
<rect x="47" y="30" width="1" height="1"/>
<rect x="48" y="30" width="1" height="1"/>
<rect x="49" y="30" width="1" height="1"/>
<rect x="50" y="30" width="1" height="1"/>
<rect x="46" y="31" width="1" height="1"/>
<rect x="47" y="31" width="1" height="1"/>
<rect x="48" y="31" width="1" height="1"/>
<rect x="49" y="31" width="1" height="1"/>
<rect x="50" y="31" width="1" height="1"/>
</svg>