<?xml version="1.0" encoding="utf-8"?>
<svg version="1.1" id="layer" xmlns="http://www.w3.org/2000/svg" xmlns:xlink="http://www.w3.org/1999/xlink" x="0px" y="0px" viewBox="0 0 80 32" style="enable-background:new 0 0 80 32;" xml:space="preserve">
<rect x="7" y="8" width="1" height="1"/>
<rect x="8" y="8" width="1" height="1"/>
<rect x="9" y="8" width="1" height="1"/>
<rect x="10" y="8" width="1" height="1"/>
<rect x="11" y="8" width="1" height="1"/>
<rect x="12" y="8" width="1" height="1"/>
<rect x="13" y="8" width="1" height="1"/>
<rect x="7" y="9" width="1" height="1"/>
<rect x="8" y="9" width="1" height="1"/>
<rect x="9" y="9" width="1" height="1"/>
<rect x="10" y="9" width="1" height="1"/>
<rect x="11" y="9" width="1" height="1"/>
<rect x="12" y="9" width="1" height="1"/>
<rect x="13" y="9" width="1" height="1"/>
<rect x="14" y="9" width="1" height="1"/>
<rect x="15" y="9" width="1" height="1"/>
<rect x="16" y="9" width="1" height="1"/>
<rect x="17" y="9" width="1" height="1"/>
<rect x="18" y="9" width="1" height="1"/>
<rect x="19" y="9" width="1" height="1"/>
<rect x="20" y="9" width="1" height="1"/>
<rect x="21" y="9" width="1" height="1"/>
<rect x="7" y="10" width="1" height="1"/>
<rect x="8" y="10" width="1" height="1"/>
<rect x="9" y="10" width="1" height="1"/>
<rect x="10" y="10" width="1" height="1"/>
<rect x="11" y="10" width="1" height="1"/>
<rect x="12" y="10" width="1" height="1"/>
<rect x="13" y="10" width="1" height="1"/>
<rect x="21" y="10" width="1" height="1"/>
<rect x="7" y="11" width="1" height="1"/>
<rect x="8" y="11" width="1" height="1"/>
<rect x="9" y="11" width="1" height="1"/>
<rect x="10" y="11" width="1" height="1"/>
<rect x="11" y="11" width="1" height="1"/>
<rect x="12" y="11" width="1" height="1"/>
<rect x="13" y="11" width="1" height="1"/>
<rect x="21" y="11" width="1" height="1"/>
<rect x="7" y="12" width="1" height="1"/>
<rect x="8" y="12" width="1" height="1"/>
<rect x="9" y="12" width="1" height="1"/>
<rect x="10" y="12" width="1" height="1"/>
<rect x="11" y="12" width="1" height="1"/>
<rect x="12" y="12" width="1" height="1"/>
<rect x="13" y="12" width="1" height="1"/>
<rect x="21" y="12" width="1" height="1"/>
<rect x="7" y="13" width="1" height="1"/>
<rect x="8" y="13" width="1" height="1"/>
<rect x="9" y="13" width="1" height="1"/>
<rect x="10" y="13" width="1" height="1"/>
<rect x="11" y="13" width="1" height="1"/>
<rect x="12" y="13" width="1" height="1"/>
<rect x="13" y="13" width="1" height="1"/>
<rect x="21" y="13" width="1" height="1"/>
<rect x="22" y="13" width="1" height="1"/>
<rect x="23" y="13" width="1" height="1"/>
<rect x="24" y="13" width="1" height="1"/>
<rect x="25" y="13" width="1" height="1"/>
<rect x="26" y="13" width="1" height="1"/>
<rect x="27" y="13" width="1" height="1"/>
<rect x="28" y="13" width="1" height="1"/>
<rect x="29" y="13" width="1" height="1"/>
<rect x="7" y="14" width="1" height="1"/>
<rect x="8" y="14" width="1" height="1"/>
<rect x="9" y="14" width="1" height="1"/>
<rect x="10" y="14" width="1" height="1"/>
<rect x="11" y="14" width="1" height="1"/>
<rect x="12" y="14" width="1" height="1"/>
<rect x="13" y="14" width="1" height="1"/>
<rect x="23" y="14" width="1" height="1"/>
<rect x="24" y="14" width="1" height="1"/>
<rect x="25" y="14" width="1" height="1"/>
<rect x="26" y="14" width="1" height="1"/>
<rect x="27" y="14" width="1" height="1"/>
<rect x="28" y="14" width="1" height="1"/>
<rect x="29" y="14" width="1" height="1"/>
<rect x="23" y="15" width="1" height="1"/>
<rect x="24" y="15" width="1" height="1"/>
<rect x="25" y="15" width="1" height="1"/>
<rect x="26" y="15" width="1" height="1"/>
<rect x="27" y="15" width="1" height="1"/>
<rect x="28" y="15" width="1" height="1"/>
<rect x="29" y="15" width="1" height="1"/>
<rect x="23" y="16" width="1" height="1"/>
<rect x="24" y="16" width="1" height="1"/>
<rect x="25" y="16" width="1" height="1"/>
<rect x="26" y="16" width="1" height="1"/>
<rect x="27" y="16" width="1" height="1"/>
<rect x="28" y="16" width="1" height="1"/>
<rect x="29" y="16" width="1" height="1"/>
<rect x="30" y="16" width="1" height="1"/>
<rect x="31" y="16" width="1" height="1"/>
<rect x="32" y="16" width="1" height="1"/>
<rect x="33" y="16" width="1" height="1"/>
<rect x="67" y="16" width="1" height="1"/>
<rect x="68" y="16" width="1" height="1"/>
<rect x="69" y="16" width="1" height="1"/>
<rect x="70" y="16" width="1" height="1"/>
<rect x="71" y="16" width="1" height="1"/>
<rect x="72" y="16" width="1" height="1"/>
<rect x="73" y="16" width="1" height="1"/>
<rect x="23" y="17" width="1" height="1"/>
<rect x="24" y="17" width="1" height="1"/>
<rect x="25" y="17" width="1" height="1"/>
<rect x="26" y="17" width="1" height="1"/>
<rect x="27" y="17" width="1" height="1"/>
<rect x="28" y="17" width="1" height="1"/>
<rect x="29" y="17" width="1" height="1"/>
<rect x="33" y="17" width="1" height="1"/>
<rect x="54" y="17" width="1" height="1"/>
<rect x="55" y="17" width="1" height="1"/>
<rect x="56" y="17" width="1" height="1"/>
<rect x="57" y="17" width="1" height="1"/>
<rect x="58" y="17" width="1" height="1"/>
<rect x="59" y="17" width="1" height="1"/>
<rect x="60" y="17" width="1" height="1"/>
<rect x="61" y="17" width="1" height="1"/>
<rect x="62" y="17" width="1" height="1"/>
<rect x="63" y="17" width="1" height="1"/>
<rect x="64" y="17" width="1" height="1"/>
<rect x="65" y="17" width="1" height="1"/>
<rect x="66" y="17" width="1" height="1"/>
<rect x="67" y="17" width="1" height="1"/>
<rect x="68" y="17" width="1" height="1"/>
<rect x="69" y="17" width="1" height="1"/>
<rect x="70" y="17" width="1" height="1"/>
<rect x="71" y="17" width="1" height="1"/>
<rect x="72" y="17" width="1" height="1"/>
<rect x="73" y="17" width="1" height="1"/>
<rect x="23" y="18" width="1" height="1"/>
<rect x="24" y="18" width="1" height="1"/>
<rect x="25" y="18" width="1" height="1"/>
<rect x="26" y="18" width="1" height="1"/>
<rect x="27" y="18" width="1" height="1"/>
<rect x="28" y="18" width="1" height="1"/>
<rect x="29" y="18" width="1" height="1"/>
<rect x="33" y="18" width="1" height="1"/>
<rect x="34" y="18" width="1" height="1"/>
<rect x="35" y="18" width="1" height="1"/>
<rect x="36" y="18" width="1" height="1"/>
<rect x="37" y="18" width="1" height="1"/>
<rect x="38" y="18" width="1" height="1"/>
<rect x="39" y="18" width="1" height="1"/>
<rect x="40" y="18" width="1" height="1"/>
<rect x="41" y="18" width="1" height="1"/>
<rect x="42" y="18" width="1" height="1"/>
<rect x="54" y="18" width="1" height="1"/>
<rect x="67" y="18" width="1" height="1"/>
<rect x="68" y="18" width="1" height="1"/>
<rect x="69" y="18" width="1" height="1"/>
<rect x="70" y="18" width="1" height="1"/>
<rect x="71" y="18" width="1" height="1"/>
<rect x="72" y="18" width="1" height="1"/>
<rect x="73" y="18" width="1" height="1"/>
<rect x="23" y="19" width="1" height="1"/>
<rect x="24" y="19" width="1" height="1"/>
<rect x="25" y="19" width="1" height="1"/>
<rect x="26" y="19" width="1" height="1"/>
<rect x="27" y="19" width="1" height="1"/>
<rect x="28" y="19" width="1" height="1"/>
<rect x="29" y="19" width="1" height="1"/>
<rect x="37" y="19" width="1" height="1"/>
<rect x="38" y="19" width="1" height="1"/>
<rect x="39" y="19" width="1" height="1"/>
<rect x="40" y="19" width="1" height="1"/>
<rect x="41" y="19" width="1" height="1"/>
<rect x="42" y="19" width="1" height="1"/>
<rect x="54" y="19" width="1" height="1"/>
<rect x="67" y="19" width="1" height="1"/>
<rect x="68" y="19" width="1" height="1"/>
<rect x="69" y="19" width="1" height="1"/>
<rect x="70" y="19" width="1" height="1"/>
<rect x="71" y="19" width="1" height="1"/>
<rect x="72" y="19" width="1" height="1"/>
<rect x="73" y="19" width="1" height="1"/>
<rect x="37" y="20" width="1" height="1"/>
<rect x="38" y="20" width="1" height="1"/>
<rect x="39" y="20" width="1" height="1"/>
<rect x="40" y="20" width="1" height="1"/>
<rect x="41" y="20" width="1" height="1"/>
<rect x="42" y="20" width="1" height="1"/>
<rect x="54" y="20" width="1" height="1"/>
<rect x="67" y="20" width="1" height="1"/>
<rect x="68" y="20" width="1" height="1"/>
<rect x="69" y="20" width="1" height="1"/>
<rect x="70" y="20" width="1" height="1"/>
<rect x="71" y="20" width="1" height="1"/>
<rect x="72" y="20" width="1" height="1"/>
<rect x="73" y="20" width="1" height="1"/>
<rect x="37" y="21" width="1" height="1"/>
<rect x="38" y="21" width="1" height="1"/>
<rect x="39" y="21" width="1" height="1"/>
<rect x="40" y="21" width="1" height="1"/>
<rect x="41" y="21" width="1" height="1"/>
<rect x="42" y="21" width="1" height="1"/>
<rect x="54" y="21" width="1" height="1"/>
<rect x="67" y="21" width="1" height="1"/>
<rect x="68" y="21" width="1" height="1"/>
<rect x="69" y="21" width="1" height="1"/>
<rect x="70" y="21" width="1" height="1"/>
<rect x="71" y="21" width="1" height="1"/>
<rect x="72" y="21" width="1" height="1"/>
<rect x="73" y="21" width="1" height="1"/>
<rect x="37" y="22" width="1" height="1"/>
<rect x="38" y="22" width="1" height="1"/>
<rect x="39" y="22" width="1" height="1"/>
<rect x="40" y="22" width="1" height="1"/>
<rect x="41" y="22" width="1" height="1"/>
<rect x="42" y="22" width="1" height="1"/>
<rect x="54" y="22" width="1" height="1"/>
<rect x="37" y="23" width="1" height="1"/>
<rect x="38" y="23" width="1" height="1"/>
<rect x="39" y="23" width="1" height="1"/>
<rect x="40" y="23" width="1" height="1"/>
<rect x="41" y="23" width="1" height="1"/>
<rect x="42" y="23" width="1" height="1"/>
<rect x="43" y="23" width="1" height="1"/>
<rect x="44" y="23" width="1" height="1"/>
<rect x="45" y="23" width="1" height="1"/>
<rect x="46" y="23" width="1" height="1"/>
<rect x="47" y="23" width="1" height="1"/>
<rect x="48" y="23" width="1" height="1"/>
<rect x="49" y="23" width="1" height="1"/>
<rect x="50" y="23" width="1" height="1"/>
<rect x="51" y="23" width="1" height="1"/>
<rect x="52" y="23" width="1" height="1"/>
<rect x="53" y="23" width="1" height="1"/>
<rect x="54" y="23" width="1" height="1"/>
<rect x="37" y="24" width="1" height="1"/>
<rect x="38" y="24" width="1" height="1"/>
<rect x="39" y="24" width="1" height="1"/>
<rect x="40" y="24" width="1" height="1"/>
<rect x="41" y="24" width="1" height="1"/>
<rect x="42" y="24" width="1" height="1"/>
</svg>