<?xml version="1.0" encoding="utf-8"?>
<!-- Generator: Adobe Illustrator 23.0.1, SVG Export Plug-In . SVG Version: 6.00 Build 0)  -->
<svg version="1.1" xmlns="http://www.w3.org/2000/svg" xmlns:xlink="http://www.w3.org/1999/xlink" x="0px" y="0px"
	 viewBox="0 0 103.44 97.92" style="enable-background:new 0 0 103.44 97.92;" xml:space="preserve">
<style type="text/css">
	.st0{fill:#FBE9D7;}
	.st1{fill:#E8AC72;}
	.st2{fill:#8C6130;}
</style>
<g id="レイヤー_4">
	<line class="st0" x1="0" y1="0" x2="103.44" y2="0"/>
	<rect x="-30.67" y="-25.26" class="st0" width="148.34" height="134.02"/>
</g>
<g id="レイヤー_5">
	<path class="st1" d="M64.53,79.98c-1.23-0.52-2.15-0.33-4.39-0.22c-2.59,0.13-2.14-0.08-4.07,0.05c-2.92,0.21-5.21,0.79-6.78,1.19
		c-2.16,0.56-2.23,0.74-4.39,1.25c-0.95,0.22-2.51,0.58-4.23,0.76c-2.57,0.27-4.45,0.03-5.91-0.11c-7.35-0.71-7.92,0.62-9.7-0.22
		c-5.7-2.69-4.33-18.19-1.88-43.54c0.17-1.72,0.21-2.06,0.29-2.53c1.5-8.87,8.66-21.28,21.76-23.71
		c13.14-2.44,23.76,6.75,28.41,13.81c2.62,3.98,3.43,8.82,5.06,18.51c0,0,3.48,20.7-4.05,36.8c-0.11,0.23-0.39,0.83-1.01,1.16
		c-0.49,0.26-1.06,0.27-2.82-0.22c-1.98-0.55-2.98-0.82-4.27-1.59C65.22,80.57,65.43,80.36,64.53,79.98z"/>
	<path class="st2" d="M74.26,82.65c0.11,0.12,0.29,0.27,1.26,0.46c1.6,0.31,2.48,0.49,3.04,0c0.24-0.21,0.3-0.44,0.51-1.52
		c0.3-1.61,0.46-2.41,0.51-2.96c0.17-1.9,0.15-3.37,0.14-3.69c-0.03-2.9,0.67-3.97,1.45-8.31c0.12-0.65,0.62-3.55,0.8-6.58
		c0.08-1.36,0.12-3.21-1.31-14.31c-0.64-5.03-0.87-6.34-1.16-7.73c-0.41-2.02-0.88-3.73-1.81-7.16c-1.12-4.11-1.68-6.19-2.24-7.23
		c-1.68-3.15-4.03-4.93-5.71-6.22c-3.76-2.86-7.39-3.92-9.4-4.48c-2.84-0.8-5.09-0.99-7.16-1.16c-2.24-0.18-6.06-0.49-9.47,0.14
		c-9.06,1.69-14.58,9.94-16.19,12.36c-2.63,3.94-3.72,7.42-5.28,12.43c-0.37,1.2-1.93,6.31-2.82,13.45
		c-0.34,2.73-0.37,8.25-0.43,19.3c0,0-0.02,4.13,0.46,8.61c0.08,0.73,0.13,0.76,0.26,1.95c0.15,1.36,0.12,1.59,0.36,1.88
		c0.42,0.51,1.13,0.53,2.39,0.58c1.13,0.04,1.79,0.07,2.17-0.36c0.5-0.57,0.18-1.61,0.07-1.95c-0.02-0.06-0.28-3.27-0.8-9.69
		c-0.17-2.09,0.06-1.58,0.22-8.17c0.11-4.55,0.06-7.15,0.07-8.6c0.12-12.39,5.9-23.85,6.14-24.36c3.23-6.73,6.17-9.57,8.75-11.35
		c4.54-3.13,9.03-3.69,10.19-3.81c4.6-0.48,8.09,0.67,9.69,1.21c2.78,0.94,7.08,2.35,9.69,6.22c1.12,1.66,2,3.88,2.35,4.78
		c0.78,1.97,1.18,3.53,1.42,4.52c2.31,9.3,3.24,15.57,3.24,15.57c0.83,5.62,1.25,8.43,1.13,11.13c-0.14,3.18-0.54,3.01-1.21,10.12
		c-0.53,5.64-0.3,5.92-0.8,7.95c-0.38,1.54-0.3,3.16-0.65,4.7C73.99,81.06,73.73,82.06,74.26,82.65z"/>
	<path class="st2" d="M55.91,37.97c0.29,0.12,0.22-0.01,1.14,0.1c0.89,0.11,1.32,0.29,2.09,0.22c0.22-0.02,0.4-0.05,0.6-0.14
		c0.44-0.18,0.68-0.49,0.79-0.62c0.15-0.19,0.43-0.56,0.43-1.03c0-0.46-0.26-0.57-0.24-1.11c0.01-0.35,0.12-0.36,0.11-0.62
		c-0.03-0.55-0.54-1.09-1.08-1.19c-0.28-0.05-0.38,0.05-0.74,0.11c-1.09,0.18-1.46-0.55-2.26-0.35c-0.45,0.11-0.73,0.43-1.27,1.08
		c-0.46,0.55-0.71,0.84-0.79,1.3C54.51,36.62,55.12,37.64,55.91,37.97z"/>
	<path class="st2" d="M40.35,37.44c0.2,0.11,0.59,0.15,1.38,0.24c1.35,0.15,1.19-0.06,2.01,0.09c0.16,0.03,0.37,0.07,0.6-0.03
		c0.32-0.14,0.46-0.47,0.54-0.65c0.23-0.53,0.04-0.74,0.22-1.36c0.15-0.5,0.3-0.45,0.35-0.79c0.11-0.66-0.38-1.45-1.03-1.79
		c-0.38-0.2-0.52-0.09-1.52-0.16c-1.54-0.11-1.61-0.4-2.22-0.24c-0.75,0.2-1.48,0.86-1.65,1.68c-0.11,0.5,0.02,0.9,0.16,1.33
		C39.32,36.17,39.59,37.03,40.35,37.44z"/>
	<path class="st2" d="M39.98,41.84c-0.02,0.35,0.1,0.52,0.32,1.14c0.27,0.75,0.3,1.09,0.41,1.44c0.33,1.06,1.27,1.75,1.98,2.28
		c1.77,1.31,3.65,1.59,4.77,1.76c0.6,0.09,1.15,0.13,2.06,0.19c1.19,0.08,1.8,0.12,2.3,0.03c1.2-0.22,2.02-0.82,2.3-1.03
		c0.62-0.46,0.46-0.54,1.44-1.44c1.05-0.96,1.4-1.03,1.6-1.6c0.21-0.61,0.12-1.42-0.33-1.73c-0.3-0.22-0.55-0.04-1.33-0.05
		c-1.28-0.02-1.45-0.49-2.14-0.33c-0.4,0.09-0.37,0.26-1.65,1.52c-0.11,0.1-0.84,0.82-1.9,1.55c-0.47,0.32-0.78,0.5-1.17,0.46
		c-0.24-0.02-0.34-0.12-0.98-0.43c-0.76-0.38-0.74-0.31-0.98-0.46c-0.76-0.48-1.08-1.26-1.17-1.46c-0.34-0.83-0.04-1.06-0.43-1.84
		c-0.15-0.3-0.45-0.89-0.98-1c-0.42-0.09-0.51,0.23-1.14,0.24c-0.34,0.01-0.37-0.08-1.36-0.3c-0.73-0.16-0.84-0.14-0.92-0.11
		C40.26,40.8,40,41.37,39.98,41.84z"/>
</g>
</svg>
