<?xml version="1.0" encoding="utf-8"?>
<!-- Generator: Adobe Illustrator 23.0.1, SVG Export Plug-In . SVG Version: 6.00 Build 0)  -->
<svg version="1.1" id="レイヤー_1" xmlns="http://www.w3.org/2000/svg" xmlns:xlink="http://www.w3.org/1999/xlink" x="0px"
	 y="0px" viewBox="0 0 960 540" style="enable-background:new 0 0 960 540;" xml:space="preserve">
<style type="text/css">
	.st0{clip-path:url(#SVGID_2_);fill-rule:evenodd;clip-rule:evenodd;fill:url(#SVGID_3_);}
	.st1{clip-path:url(#SVGID_5_);fill-rule:evenodd;clip-rule:evenodd;fill:url(#SVGID_6_);}
	.st2{enable-background:new    ;}
	.st3{fill:#26526F;}
</style>
<g>
	<g>
		<g>
			<defs>
				<rect id="SVGID_1_" x="-176.5" y="-81" width="1248" height="702"/>
			</defs>
			<clipPath id="SVGID_2_">
				<use xlink:href="#SVGID_1_"  style="overflow:visible;"/>
			</clipPath>
			
				<linearGradient id="SVGID_3_" gradientUnits="userSpaceOnUse" x1="180.9" y1="-32.4" x2="180.9" y2="-91.875" gradientTransform="matrix(1 0 0 1 0 300)">
				<stop  offset="0" style="stop-color:#387BAB"/>
				<stop  offset="0.4" style="stop-color:#255272"/>
				<stop  offset="1" style="stop-color:#255272"/>
			</linearGradient>
			<path class="st0" d="M210.6,237.9c0,16.4-13.3,29.7-29.7,29.7s-29.7-13.3-29.7-29.7s13.3-29.7,29.7-29.7
				C197.3,208.2,210.6,221.5,210.6,237.9z"/>
		</g>
	</g>
	<g>
		<g>
			<defs>
				<rect id="SVGID_4_" x="-176.5" y="-81" width="1248" height="702"/>
			</defs>
			<clipPath id="SVGID_5_">
				<use xlink:href="#SVGID_4_"  style="overflow:visible;"/>
			</clipPath>
			
				<linearGradient id="SVGID_6_" gradientUnits="userSpaceOnUse" x1="188.1696" y1="333.6304" x2="188.1696" y2="-455.3746" gradientTransform="matrix(1 0 0 1 0 300)">
				<stop  offset="0" style="stop-color:#255272"/>
				<stop  offset="0.1667" style="stop-color:#255272"/>
				<stop  offset="0.3333" style="stop-color:#387BAB"/>
				<stop  offset="0.5" style="stop-color:#255272"/>
				<stop  offset="0.6667" style="stop-color:#255272"/>
				<stop  offset="0.8333" style="stop-color:#255272"/>
				<stop  offset="1" style="stop-color:#387BAB"/>
			</linearGradient>
			<path class="st1" d="M74.6,205.8c4.3,1.9,10.6,5.6,14.1,12.5c3,6.1,2.7,12.6-1.6,29.7c-4.8,19.4-7.4,23.2-9.4,32
				c-4.1,18.6,0.1,35.8,3.1,43.7c13.2,34.2,66.9,46.8,101.5,46.8c44.1,0.1,104.3-20.1,117.1-62.5c4.2-13.8,2-25.7-0.8-41.4
				c-3.4-19.2-9.6-29.5-35.9-90.6c-4.6-10.7-10.5-24.9-5.5-39c3.6-10,11.2-16.6,11.2-16.6c8.7-7.5,17.9-8,17.7-10
				c-0.3-2.1-11.5-4.7-22.6-1.6c-16.9,4.8-28.3,21.4-32.8,35.9c-0.6,2.1-1.1,4.2-1.5,6.3c-3,20.2,3.1,36.8,5.4,42.9
				c9.1,24.3,18,48.2,9.4,71c-9.1,24.2-35.7,41.3-63.3,42.2c-27.9,0.9-58.4-14.8-64.8-36.7c-5-17,7.3-28.8-2.3-47.6
				c-1.7-3.3-7.3-14.2-19.5-18C85.6,202.4,78,204.6,74.6,205.8z"/>
		</g>
	</g>
	<g class="st2">
		<path class="st3" d="M366.5,216.8c6.7,0,11.6,1.3,14.9,4.4c2.6,2.6,4.4,6.4,4.4,11.3c0,6.2-2.4,10.9-6.5,14c-4,3-9.2,4.4-15.6,4.4
			h-12.4v-1.4c4.6-0.3,5.1-0.6,5.1-5.1v-21.2c0-4.5-0.4-4.7-4.6-5.1v-1.4h14.7V216.8z M360.6,244c0,4.1,1.9,5,5.7,5
			c10.3,0,14.8-7.6,14.8-15.8c0-5.5-2.1-10.3-6.6-12.7c-2.4-1.4-5.5-2-9-2c-2.3,0-3.7,0.3-4.3,0.7c-0.4,0.3-0.6,0.8-0.6,2.9V244z"/>
		<path class="st3" d="M415.5,249.6c-1.1,0.2-2.6,0.5-3.9,0.8c-1.3,0.4-2.6,0.8-3.5,1.1l-0.3-0.3v-3.8c-1.3,1-2.5,2-4.1,2.9
			c-1.5,0.8-2.6,1.3-4,1.3c-3.4,0-6.5-2-6.5-7.9v-10.2c0-2.9-0.4-3.2-1.7-3.5l-1.5-0.3v-1.2c1,0,2.3-0.1,3.6-0.3
			c1.4-0.2,2.8-0.4,3.6-0.6c-0.1,1.5-0.2,4-0.2,7.6v7c0,4.7,2.4,6.1,4.8,6.1c2,0,4-0.8,6-2.7v-12.2c0-2.9-0.5-3.2-2.3-3.5l-1.9-0.3
			v-1.2c1.4,0,3.2-0.2,4.7-0.3c1.5-0.2,2.6-0.4,3.3-0.6v17.6c0,2.6,0.4,2.9,2.5,3.1l1.5,0.1v1.3H415.5z"/>
		<path class="st3" d="M432.7,250.9v-1.3c3.2-0.3,3.6-0.7,3.6-4.4v-8.8c0-3.5-1.2-6.1-4.9-6.1c-2.2,0-4.4,1.4-6,2.9v12.3
			c0,3.6,0.3,3.8,3.6,4.1v1.3h-11.3v-1.3c3.6-0.3,3.9-0.6,3.9-4.1v-10.8c0-3.4-0.3-3.6-3.3-4.1v-1.2c2.5-0.5,4.9-1.2,7-2.2v4.3
			c1.1-0.8,2.2-1.6,3.6-2.5c1.5-1,2.9-1.6,4.4-1.6c4.2,0,6.8,2.9,6.8,7.9v10.2c0,3.6,0.3,3.8,3.4,4.1v1.3L432.7,250.9L432.7,250.9z"
			/>
		<path class="st3" d="M468.8,228.3c-0.5,0.8-1.6,2.2-2.4,2.6l-3-0.1c1,1.2,1.5,2.9,1.5,4.7c0,5.7-4.7,8.4-9,8.4
			c-0.9,0-1.9-0.1-2.8-0.3c-0.8,0.4-1.7,1.5-1.7,2.3c0,1,1,2,3.3,2c2,0,3.9-0.1,5.7-0.1c3.3,0,7.4,1.1,7.4,6.2c0,5.2-6,10.4-13,10.4
			c-5.8,0-9-3.4-9-6.5c0-1.2,0.4-2.2,1.2-2.9c1-1.1,3.2-2.8,4.4-3.8c-1.8-0.6-3.2-1.8-3.9-2.9c-0.4-0.7-0.6-1.6-0.5-2.1
			c2-0.7,3.7-2.1,4.5-3.1c-2.2-1-4.5-3.5-4.5-7c0-6,5.3-8.8,9.2-8.8h0.1c1.7,0,3.5,0.5,5,1.3c2.5-0.2,5.2-0.4,7.1-0.8L468.8,228.3z
			 M452.5,252.5c-1.5,1.2-2.6,2.8-2.6,4.4c0.1,2.9,3.1,5.1,7,5.1c5.2,0,7.7-2.7,7.7-6c0-1.7-0.8-3.1-2.2-3.7
			c-1.3-0.6-2.9-0.8-5.2-0.8C454.6,251.4,453.5,251.7,452.5,252.5z M455.9,228.9c-2.4,0-4.5,2.2-4.5,6.3c0,4.2,2.2,7.1,5.2,7.1
			c2.4-0.1,4.5-2.1,4.5-6.2C461,231.8,458.9,228.9,455.9,228.9L455.9,228.9z"/>
		<path class="st3" d="M489,246.5c-3.3,4-6.9,5-8.4,5c-6.3,0-10.2-5.2-10.2-11.2c0-3.5,1.3-6.8,3.5-9.1c2.1-2.4,4.9-3.9,7.6-3.9
			c4.4,0,7.9,3.8,7.9,7.9c0,1.1-0.3,1.4-1.2,1.7c-0.9,0.1-7.5,0.6-14,0.9c0.1,7.4,4.3,10.3,8,10.3c2.1,0,4.1-0.9,6-2.7L489,246.5z
			 M480.2,229.2c-2.4,0-4.9,2.2-5.7,6.5c3.1,0,6.1-0.1,9.3-0.2c1,0,1.3-0.3,1.3-1C485,231.7,483.2,229.2,480.2,229.2L480.2,229.2z"
			/>
		<path class="st3" d="M504.4,227.3c6.3,0,11.3,5.2,11.3,11.7c0,8.4-6.2,12.5-11.3,12.5c-7.1,0-11.5-5.8-11.5-11.6
			C492.9,231.2,499.7,227.3,504.4,227.3L504.4,227.3z M503.7,229c-3.3,0-6.2,3.3-6.2,9.2c0,6.7,2.9,11.6,7.4,11.6
			c3.4,0,6.2-2.6,6.2-9.7C511.1,234.2,508.6,229,503.7,229L503.7,229z"/>
		<path class="st3" d="M533.7,250.9v-1.3c3.2-0.3,3.6-0.7,3.6-4.4v-8.8c0-3.5-1.2-6.1-4.9-6.1c-2.2,0-4.4,1.4-6,2.9v12.3
			c0,3.6,0.3,3.8,3.6,4.1v1.3h-11.3v-1.3c3.6-0.3,3.9-0.6,3.9-4.1v-10.8c0-3.4-0.3-3.6-3.3-4.1v-1.2c2.5-0.5,4.9-1.2,7-2.2v4.3
			c1.1-0.8,2.2-1.6,3.6-2.5c1.5-1,2.9-1.6,4.4-1.6c4.2,0,6.8,2.9,6.8,7.9v10.2c0,3.6,0.3,3.8,3.4,4.1v1.3L533.7,250.9L533.7,250.9z"
			/>
		<path class="st3" d="M587.7,224.8c-0.5-2.4-1-3.7-1.5-4.5c-0.9-1.3-1.7-1.7-5.8-1.7h-3.9v26c0,4.1,0.4,4.7,5.4,5v1.4h-14.8v-1.4
			c4.8-0.3,5.2-0.8,5.2-5v-26h-3.5c-4.4,0-5.4,0.4-6.1,1.7c-0.6,0.9-1,2.4-1.6,4.6h-1.5c0.3-3.1,0.5-6.5,0.6-9.3h1
			c0.8,1.2,1.5,1.3,2.9,1.3H585c1.4,0,1.8-0.3,2.6-1.3h1.1c0,2.4,0.3,6.2,0.5,9.2H587.7z"/>
		<path class="st3" d="M605.8,246.5c-3.3,4-6.9,5-8.4,5c-6.3,0-10.2-5.2-10.2-11.2c0-3.5,1.3-6.8,3.5-9.1c2.1-2.4,4.9-3.9,7.6-3.9
			c4.4,0,7.9,3.8,7.9,7.9c0,1.1-0.3,1.4-1.2,1.7c-0.9,0.1-7.5,0.6-14,0.9c0.1,7.4,4.3,10.3,8,10.3c2.1,0,4.1-0.9,6-2.7L605.8,246.5z
			 M597,229.2c-2.4,0-4.9,2.2-5.7,6.5c3.1,0,6.1-0.1,9.3-0.2c1,0,1.3-0.3,1.3-1C601.8,231.7,600,229.2,597,229.2L597,229.2z"/>
		<path class="st3" d="M638.2,250.9v-1.3c3.1-0.3,3.8-0.6,3.8-4.4v-8.6c0-3.6-1.2-6.3-4.7-6.3c-2,0-4.1,1.2-6.1,2.9
			c0.1,0.6,0.2,1.2,0.2,2.2v10.1c0,3.5,0.5,3.8,3.5,4v1.3h-11.1v-1.3c3.4-0.3,3.9-0.6,3.9-4.1v-9c0-3.9-1.3-6.2-4.8-6.2
			c-2.1,0-4.4,1.6-6,2.9v12.3c0,3.5,0.4,3.8,3.1,4.1v1.3h-10.9v-1.3c3.5-0.3,4-0.6,4-4.1v-10.8c0-3.4-0.2-3.6-3.3-4.1v-1.2
			c2.2-0.5,4.8-1.2,7-2.2v4.3c1.1-0.7,2.2-1.7,3.9-2.7c1.3-0.8,2.6-1.4,4.3-1.4c2.4,0,4.7,1.6,5.8,4.4c1.5-1.2,3.1-2.2,4.4-3
			c1.2-0.8,2.4-1.3,4-1.3c4,0,6.6,2.9,6.6,8v10.1c0,3.6,0.4,3.8,3.5,4.1v1.3H638.2z"/>
		<path class="st3" d="M663,228.1c0.9-0.6,1.9-0.8,2.5-0.8c5.8,0,9.3,4.7,9.3,9.9c0,7.9-6.3,13-13.2,14.3c-1.6-0.1-3-0.6-3.6-1v7
			c0,4.1,0.4,4.4,4.4,4.7v1.5h-12.2v-1.5c3.4-0.3,3.9-0.6,3.9-4.1v-23.8c0-3.5-0.3-3.5-3.5-4V229c2.1-0.3,5-1.3,7.4-2.3v4.3
			L663,228.1z M658,246.9c1.2,1.2,3.1,2,5,2c4.7,0,7.7-3.8,7.7-9.8c0-5.6-3.3-8.8-7.2-8.8c-1.7,0-4,1.3-5.5,2.4V246.9z"/>
		<path class="st3" d="M677.3,250.9v-1.3c3.4-0.3,3.8-0.6,3.8-4.1v-25c0-3.6-0.3-3.7-3.7-4v-1.2c2.7-0.3,5.9-1.2,7.5-1.9v32.1
			c0,3.5,0.5,3.8,3.9,4.1v1.3L677.3,250.9L677.3,250.9z"/>
		<path class="st3" d="M707.9,251.5c-0.8,0-1.9-0.5-2.4-1c-0.7-0.7-1.1-1.5-1.3-2.4c-2.1,1.4-4.7,3.4-6.3,3.4
			c-3.6,0-6.2-3.1-6.2-6.4c0-2.6,1.3-4.2,4.3-5.2c3.1-1,7-2.4,8.1-3.3v-0.8c0-3.9-1.9-6.1-4.6-6.1c-1,0-1.9,0.4-2.4,1
			c-0.6,0.7-1.2,1.9-1.5,3.5c-0.3,0.8-0.8,1.1-1.5,1.1c-0.9,0-2.2-0.9-2.2-2.2c0-0.7,0.6-1.3,1.7-2c1.4-1,4.8-3.1,7.7-3.6
			c1.5,0,3.1,0.4,4.2,1.4c1.8,1.5,2.3,3.6,2.3,6.4v9.9c0,2.4,1,3.1,1.9,3.1c0.7,0,1.4-0.3,2-0.6l0.4,1.3L707.9,251.5z M704.1,238.3
			c-1.2,0.6-3.8,1.7-5,2.2c-2,1-3.3,2-3.3,3.9c0,2.8,2,4,3.8,4c1.4-0.1,3.5-1,4.4-2L704.1,238.3L704.1,238.3z"/>
		<path class="st3" d="M723.4,250.8c-0.9,0.5-1.7,0.7-2.2,0.7c-3.3,0-5-2.1-5-6.2v-15.4h-3.7l-0.2-0.6l1.4-1.5h2.5V224l3-3.4
			l0.8,0.1v7.1h6.1c0.4,0.6,0.3,1.7-0.4,2H720v13.6c0,4.3,1.7,5.1,3.1,5.1c1.4,0,2.6-0.5,3.3-0.9l0.4,1.2L723.4,250.8z"/>
		<path class="st3" d="M747.6,246.5c-3.3,4-6.9,5-8.4,5c-6.3,0-10.2-5.2-10.2-11.2c0-3.5,1.3-6.8,3.5-9.1c2.1-2.4,4.9-3.9,7.6-3.9
			c4.4,0,7.9,3.8,7.9,7.9c0,1.1-0.3,1.4-1.2,1.7c-0.9,0.1-7.5,0.6-14,0.9c0.1,7.4,4.3,10.3,8,10.3c2.1,0,4.1-0.9,6-2.7L747.6,246.5z
			 M738.7,229.2c-2.4,0-4.9,2.2-5.7,6.5c3.1,0,6.1-0.1,9.3-0.2c1,0,1.3-0.3,1.3-1C743.6,231.7,741.7,229.2,738.7,229.2L738.7,229.2z
			"/>
		<path class="st3" d="M789.2,242.7c-0.3,1.6-1.3,6.5-1.9,8.2h-23.6v-1.4c4.4-0.3,4.8-0.7,4.8-5.2v-21.1c0-4.5-0.3-4.7-4.6-5.1v-1.4
			h13.4v1.4c-4.2,0.3-4.7,0.5-4.7,5.1V244c0,2.9,0.3,3.9,1.2,4.5c1,0.6,2.9,0.7,5.2,0.7c3,0,4.7-0.3,6-1.6c0.9-1,1.9-2.7,2.7-5.1
			L789.2,242.7z"/>
		<path class="st3" d="M791.8,250.9v-1.3c3.4-0.3,3.8-0.6,3.8-4.2v-10.9c0-3.3-0.1-3.5-3.4-4v-1.2c2.6-0.5,5-1.2,7.2-2.1v18.2
			c0,3.6,0.4,3.9,3.8,4.2v1.3H791.8z M794.7,220c0-1.5,1.2-2.6,2.6-2.6c1.3,0,2.4,1.2,2.4,2.6c0,1.4-1.1,2.6-2.5,2.6
			C795.9,222.6,794.7,221.4,794.7,220z"/>
		<path class="st3" d="M816.1,227.8c0.8-0.3,1.4-0.4,1.9-0.4c5.6,0,10.4,4.8,10.4,11.1c0,7.7-6.2,13.1-13.2,13.1
			c-2,0-4.7-0.5-7.5-1.9v-29.3c0-3.3-0.1-3.6-3.5-3.9v-1.2c2.4-0.3,5.5-1.1,7.3-1.9v16.4L816.1,227.8z M811.5,244.7
			c0,0.8,0.1,1.3,0.3,1.9c0.3,1.1,2,3,4.9,3c4.6,0,7.4-3.8,7.4-9.9c0-5.9-3.7-9.5-8.2-9.5c-1.6,0-3.5,0.5-4.4,1.1V244.7z"/>
		<path class="st3" d="M839.1,232.9c1.5-2.6,3.8-5.6,6.4-5.6c1.8,0,3,1.4,3,2.6c0,1-0.6,1.9-1.6,2.4c-0.6,0.3-1,0.2-1.3-0.1
			c-0.8-0.8-1.4-1.1-2.2-1.1c-1.5,0-3.2,1.7-4.4,4.7v9.6c0,3.5,0.3,3.8,4.4,4.1v1.3h-11.9v-1.3c3.3-0.3,3.7-0.6,3.7-4.1v-10.8
			c0-3.6-0.3-3.8-3.3-4.1v-1.2c2.5-0.4,4.7-1.2,7.1-2.2L839.1,232.9L839.1,232.9L839.1,232.9z"/>
		<path class="st3" d="M867.3,251.5c-0.8,0-1.9-0.5-2.4-1c-0.7-0.7-1.1-1.5-1.3-2.4c-2.1,1.4-4.7,3.4-6.3,3.4
			c-3.6,0-6.2-3.1-6.2-6.4c0-2.6,1.3-4.2,4.3-5.2c3.1-1,7-2.4,8.1-3.3v-0.8c0-3.9-1.9-6.1-4.6-6.1c-1,0-1.9,0.4-2.4,1
			c-0.6,0.7-1.2,1.9-1.5,3.5c-0.3,0.8-0.8,1.1-1.5,1.1c-0.9,0-2.2-0.9-2.2-2.2c0-0.7,0.6-1.3,1.7-2c1.4-1,4.8-3.1,7.7-3.6
			c1.5,0,3.1,0.4,4.2,1.4c1.8,1.5,2.3,3.6,2.3,6.4v9.9c0,2.4,1,3.1,1.9,3.1c0.7,0,1.4-0.3,2-0.6l0.4,1.3L867.3,251.5z M863.5,238.3
			c-1.2,0.6-3.8,1.7-5,2.2c-2,1-3.3,2-3.3,3.9c0,2.8,2,4,3.8,4c1.4-0.1,3.5-1,4.4-2L863.5,238.3L863.5,238.3z"/>
		<path class="st3" d="M880.7,232.9c1.5-2.6,3.8-5.6,6.4-5.6c1.8,0,3,1.4,3,2.6c0,1-0.6,1.9-1.6,2.4c-0.6,0.3-1,0.2-1.3-0.1
			c-0.8-0.8-1.4-1.1-2.2-1.1c-1.5,0-3.2,1.7-4.4,4.7v9.6c0,3.5,0.3,3.8,4.4,4.1v1.3h-11.9v-1.3c3.3-0.3,3.7-0.6,3.7-4.1v-10.8
			c0-3.6-0.3-3.8-3.3-4.1v-1.2c2.5-0.4,4.7-1.2,7.1-2.2L880.7,232.9L880.7,232.9L880.7,232.9z"/>
		<path class="st3" d="M917.3,229.2c-2.8,0.4-3.3,0.8-4.7,3.8c-1.3,2.8-2.9,7.1-6.7,16c-3.5,8.4-4.7,11.3-5.4,14.1
			c-0.3,1-0.9,1.3-1.7,1.3c-1.5,0-2.9-1.2-2.9-2.4c0-0.8,0.4-1.3,1.3-1.9c1.6-1,2.6-2.4,3.9-4.7c1-2,1.5-3.2,1.7-3.8
			c0.3-0.8,0.3-1.5,0-2.4c-2-5.8-4.4-12-6-15.9c-1.2-2.9-1.7-3.6-4.6-4V228h10.4v1.3c-2.4,0.4-2.8,1-2,2.9l4.9,13.4
			c1.5-3.6,3.9-10,4.9-13.3c0.7-2,0.4-2.6-2.7-3V228h9.5L917.3,229.2L917.3,229.2z"/>
	</g>
	<g>
		<g>
			<path class="st3" d="M631.1,295.4c3.8,0,6.6,0.8,8.4,2.5c1.4,1.4,2.5,3.6,2.5,6.4c0,3.5-1.4,6.2-3.6,7.9
				c-2.2,1.7-5.1,2.4-8.8,2.4h-7v-0.8c2.6-0.1,2.8-0.3,2.8-2.8v-11.9c0-2.6-0.3-2.7-2.6-2.8v-0.8h8.3V295.4z M627.7,310.8
				c0,2.3,1,2.8,3.2,2.8c5.8,0,8.4-4.2,8.4-8.9c0-3.1-1.2-5.8-3.7-7.2c-1.4-0.8-3.1-1.2-5.1-1.2c-1.3,0-2.1,0.1-2.4,0.4
				c-0.3,0.1-0.4,0.5-0.4,1.7V310.8z"/>
			<path class="st3" d="M658.6,313.9c-0.6,0.1-1.4,0.3-2.2,0.5s-1.5,0.5-2,0.6l-0.2-0.2v-2.2c-0.7,0.5-1.4,1.1-2.3,1.6
				c-0.9,0.5-1.4,0.7-2.2,0.7c-1.9,0-3.6-1.2-3.6-4.4v-5.7c0-1.6-0.3-1.8-1-1.9l-0.9-0.2V302c0.6,0,1.3-0.1,2.1-0.2s1.6-0.2,2-0.3
				c-0.1,0.9-0.1,2.2-0.1,4.3v4c0,2.7,1.3,3.4,2.7,3.4c1.1,0,2.3-0.5,3.3-1.5v-6.8c0-1.6-0.3-1.8-1.3-1.9l-1.1-0.2V302
				c0.8,0,1.8-0.1,2.6-0.2s1.5-0.2,1.9-0.3v9.9c0,1.5,0.3,1.7,1.4,1.7l0.8,0.1L658.6,313.9L658.6,313.9z"/>
			<path class="st3" d="M668.3,314.6v-0.8c1.8-0.1,2-0.4,2-2.4v-4.9c0-2-0.7-3.5-2.8-3.5c-1.2,0-2.4,0.8-3.4,1.6v6.9
				c0,2,0.2,2.2,2,2.3v0.8h-6.3v-0.8c2-0.2,2.2-0.4,2.2-2.3v-6.1c0-1.9-0.2-2-1.8-2.3v-0.6c1.4-0.3,2.7-0.6,4-1.3v2.4
				c0.6-0.5,1.3-0.9,2-1.4c0.8-0.5,1.6-0.9,2.5-0.9c2.3,0,3.8,1.7,3.8,4.4v5.8c0,2,0.1,2.2,1.9,2.3v0.8H668.3z"/>
			<path class="st3" d="M688.6,301.9c-0.3,0.5-0.9,1.3-1.3,1.5l-1.7-0.1c0.5,0.6,0.9,1.6,0.9,2.7c0,3.2-2.6,4.8-5.1,4.8
				c-0.5,0-1.1-0.1-1.5-0.1c-0.4,0.3-0.9,0.8-0.9,1.3s0.5,1.1,1.8,1.1c1.1,0,2.2,0,3.2,0c1.8,0,4.2,0.6,4.2,3.5c0,3-3.3,5.8-7.3,5.8
				c-3.2,0-5-1.9-5.1-3.6c0-0.6,0.3-1.2,0.7-1.7c0.6-0.6,1.8-1.6,2.5-2.1c-1-0.3-1.8-1-2.2-1.7c-0.3-0.4-0.3-0.9-0.3-1.2
				c1.1-0.4,2.1-1.2,2.5-1.8c-1.3-0.6-2.5-1.9-2.5-4c0-3.4,3-4.9,5.2-4.9l0,0c1,0,1.9,0.3,2.8,0.8c1.4-0.1,2.9-0.3,4-0.4
				L688.6,301.9z M679.4,315.5c-0.8,0.7-1.5,1.5-1.5,2.4c0,1.7,1.8,2.8,3.9,2.8c2.9,0,4.4-1.5,4.4-3.4c0-1-0.4-1.7-1.3-2.1
				c-0.8-0.3-1.6-0.4-2.9-0.4C680.6,314.9,680,315.1,679.4,315.5z M681.3,302.2c-1.3,0-2.6,1.3-2.6,3.6c0,2.4,1.2,4,2.9,4
				c1.3,0,2.5-1.2,2.5-3.5C684.2,303.9,683.1,302.2,681.3,302.2L681.3,302.2z"/>
			<path class="st3" d="M700,312.2c-1.9,2.3-3.9,2.8-4.8,2.8c-3.6,0-5.7-3-5.7-6.3c0-2,0.8-3.8,1.9-5.1c1.2-1.4,2.8-2.2,4.3-2.2
				c2.4,0,4.4,2.2,4.4,4.5c0,0.6-0.1,0.8-0.6,0.9s-4.2,0.4-7.8,0.5c0,4.1,2.4,5.8,4.5,5.8c1.2,0,2.3-0.5,3.4-1.5L700,312.2z
				 M695,302.5c-1.4,0-2.7,1.2-3.2,3.6c1.7,0,3.4,0,5.2-0.1c0.5,0,0.7-0.2,0.7-0.6C697.7,303.9,696.7,302.5,695,302.5L695,302.5z"/>
			<path class="st3" d="M708.6,301.4c3.6,0,6.3,2.9,6.3,6.6c0,4.8-3.5,7-6.4,7c-4,0-6.4-3.2-6.4-6.6
				C702.2,303.5,706,301.4,708.6,301.4L708.6,301.4z M708.3,302.4c-1.8,0-3.5,1.8-3.5,5.2c0,3.7,1.7,6.5,4.2,6.5
				c1.9,0,3.5-1.5,3.5-5.5C712.4,305.2,711,302.4,708.3,302.4L708.3,302.4z"/>
			<path class="st3" d="M725.1,314.6v-0.8c1.8-0.1,2-0.4,2-2.4v-4.9c0-2-0.7-3.5-2.8-3.5c-1.2,0-2.4,0.8-3.4,1.6v6.9
				c0,2,0.2,2.2,2,2.3v0.8h-6.3v-0.8c2-0.2,2.2-0.4,2.2-2.3v-6.1c0-1.9-0.2-2-1.8-2.3v-0.6c1.4-0.3,2.7-0.6,4-1.3v2.4
				c0.6-0.5,1.3-0.9,2-1.4c0.8-0.5,1.6-0.9,2.5-0.9c2.3,0,3.8,1.7,3.8,4.4v5.8c0,2,0.1,2.2,1.9,2.3v0.8H725.1z"/>
			<path class="st3" d="M752.5,299.9c-0.2-1.2-0.4-1.7-0.8-2.3c-0.5-0.9-1.1-1.1-3.4-1.1h-2.4c-0.9,0-0.9,0.1-0.9,0.9v7.1h3.1
				c2.7,0,2.8-0.3,3.2-2.2h0.8v5.7h-0.8c-0.4-2.1-0.5-2.4-3.2-2.4H745v5.4c0,2.6,0.2,2.7,3,2.9v0.8h-7.9v-0.8
				c2.4-0.2,2.6-0.4,2.6-2.9v-11.9c0-2.6-0.2-2.7-2.5-2.8v-0.8h12.9c0,1.2,0.1,3,0.3,4.3L752.5,299.9z"/>
			<path class="st3" d="M759.2,304.5c0.9-1.4,2.2-3.1,3.6-3.1c1,0,1.7,0.8,1.7,1.4c0,0.5-0.3,1-0.9,1.4c-0.3,0.1-0.5,0.1-0.7-0.1
				c-0.4-0.4-0.8-0.6-1.3-0.6c-0.8,0-1.8,0.9-2.5,2.7v5.4c0,2,0.2,2.2,2.5,2.3v0.8h-6.7v-0.8c1.9-0.1,2.1-0.3,2.1-2.3v-6.1
				c0-2-0.1-2.1-1.9-2.3v-0.6c1.4-0.3,2.7-0.6,4-1.3L759.2,304.5L759.2,304.5z"/>
			<path class="st3" d="M776,312.2c-1.9,2.3-3.9,2.8-4.8,2.8c-3.6,0-5.7-3-5.7-6.3c0-2,0.8-3.8,1.9-5.1c1.2-1.4,2.8-2.2,4.3-2.2
				c2.4,0,4.4,2.2,4.4,4.5c0,0.6-0.1,0.8-0.6,0.9s-4.2,0.4-7.8,0.5c0,4.1,2.4,5.8,4.5,5.8c1.2,0,2.3-0.5,3.4-1.5L776,312.2z
				 M771,302.5c-1.4,0-2.7,1.2-3.2,3.6c1.7,0,3.4,0,5.2-0.1c0.5,0,0.7-0.2,0.7-0.6C773.8,303.9,772.7,302.5,771,302.5L771,302.5z"/>
			<path class="st3" d="M788.7,312.2c-1.9,2.3-3.9,2.8-4.8,2.8c-3.6,0-5.7-3-5.7-6.3c0-2,0.8-3.8,1.9-5.1c1.2-1.4,2.8-2.2,4.3-2.2
				c2.4,0,4.4,2.2,4.4,4.5c0,0.6-0.1,0.8-0.6,0.9s-4.2,0.4-7.8,0.5c0,4.1,2.4,5.8,4.5,5.8c1.2,0,2.3-0.5,3.4-1.5L788.7,312.2z
				 M783.7,302.5c-1.4,0-2.7,1.2-3.2,3.6c1.7,0,3.4,0,5.2-0.1c0.5,0,0.7-0.2,0.7-0.6C786.4,303.9,785.4,302.5,783.7,302.5
				L783.7,302.5z"/>
			<path class="st3" d="M815.1,314.9c-0.4,0-0.8,0-1.1,0c-2-0.1-3.2-0.8-4.6-2.7c-1.1-1.5-2.2-3.4-3.1-4.8c-0.5-0.8-1-1.2-2.6-1.2
				h-1v4.8c0,2.5,0.3,2.7,2.7,2.9v0.8h-7.6v-0.8c2.4-0.2,2.7-0.4,2.7-2.9v-12c0-2.6-0.3-2.6-2.6-2.8v-0.8h7.3c2.1,0,3.5,0.3,4.6,1
				c1.2,0.8,2,2.1,2,3.9c0,2.6-1.5,4.1-3.8,5.1c0.5,1,1.8,3,2.7,4.3c1.1,1.6,1.7,2.3,2.4,3.1c0.8,0.9,1.5,1.2,2.2,1.4L815.1,314.9z
				 M804.3,305.3c1.5,0,2.5-0.3,3.3-0.9c1.2-0.9,1.7-2.1,1.7-3.7c0-3.2-2.2-4.4-4.5-4.4c-0.9,0-1.4,0.1-1.6,0.3
				c-0.3,0.1-0.4,0.5-0.4,1.3v7.3h1.5V305.3z"/>
			<path class="st3" d="M826.6,312.2c-1.9,2.3-3.9,2.8-4.8,2.8c-3.6,0-5.7-3-5.7-6.3c0-2,0.8-3.8,1.9-5.1c1.2-1.4,2.8-2.2,4.3-2.2
				c2.4,0,4.4,2.2,4.4,4.5c0,0.6-0.1,0.8-0.6,0.9s-4.2,0.4-7.8,0.5c0,4.1,2.4,5.8,4.5,5.8c1.2,0,2.3-0.5,3.4-1.5L826.6,312.2z
				 M821.6,302.5c-1.4,0-2.7,1.2-3.2,3.6c1.7,0,3.4,0,5.2-0.1c0.5,0,0.7-0.2,0.7-0.6C824.3,303.9,823.3,302.5,821.6,302.5
				L821.6,302.5z"/>
			<path class="st3" d="M836.2,305.2c-0.5-1.7-1.6-2.9-3-2.9c-1.2,0-2,0.9-2,2.1c0,1.4,1.2,2.1,2.6,2.6c2.2,0.9,3.7,2,3.7,4
				c0,2.7-2.5,4.1-4.9,4.1c-1.5,0-2.8-0.6-3.3-1c-0.2-0.4-0.5-2.4-0.5-3.4l0.8-0.1c0.5,2,1.8,3.6,3.6,3.6c1.1,0,2.2-0.8,2.2-2.2
				c0-1.3-0.9-2.1-2.3-2.7c-1.9-0.8-3.7-1.8-3.7-4c0-2.1,1.8-3.8,4.4-3.8c1.2,0,2,0.3,2.6,0.5c0.2,0.6,0.5,2.4,0.6,3.1L836.2,305.2z
				"/>
			<path class="st3" d="M846.2,301.4c3.6,0,6.3,2.9,6.3,6.6c0,4.8-3.5,7-6.4,7c-4,0-6.4-3.2-6.4-6.6
				C839.7,303.5,843.5,301.4,846.2,301.4L846.2,301.4z M845.8,302.4c-1.8,0-3.5,1.8-3.5,5.2c0,3.7,1.7,6.5,4.2,6.5
				c1.9,0,3.5-1.5,3.5-5.5C850,305.2,848.5,302.4,845.8,302.4L845.8,302.4z"/>
			<path class="st3" d="M868.6,313.9c-0.6,0.1-1.4,0.3-2.2,0.5s-1.5,0.5-2,0.6l-0.2-0.2v-2.2c-0.7,0.5-1.4,1.1-2.3,1.6
				c-0.9,0.5-1.4,0.7-2.2,0.7c-1.9,0-3.6-1.2-3.6-4.4v-5.7c0-1.6-0.3-1.8-1-1.9l-0.9-0.2V302c0.6,0,1.3-0.1,2.1-0.2s1.6-0.2,2-0.3
				c-0.1,0.9-0.1,2.2-0.1,4.3v4c0,2.7,1.3,3.4,2.7,3.4c1.1,0,2.3-0.5,3.3-1.5v-6.8c0-1.6-0.3-1.8-1.3-1.9l-1.1-0.2V302
				c0.8,0,1.8-0.1,2.6-0.2s1.5-0.2,1.9-0.3v9.9c0,1.5,0.3,1.7,1.4,1.7l0.8,0.1L868.6,313.9L868.6,313.9z"/>
			<path class="st3" d="M874.2,304.5c0.9-1.4,2.2-3.1,3.6-3.1c1,0,1.7,0.8,1.7,1.4c0,0.5-0.3,1-0.9,1.4c-0.3,0.1-0.5,0.1-0.7-0.1
				c-0.4-0.4-0.8-0.6-1.3-0.6c-0.8,0-1.8,0.9-2.5,2.7v5.4c0,2,0.2,2.2,2.5,2.3v0.8H870v-0.8c1.9-0.1,2.1-0.3,2.1-2.3v-6.1
				c0-2-0.1-2.1-1.9-2.3v-0.6c1.4-0.3,2.7-0.6,4-1.3L874.2,304.5L874.2,304.5z"/>
			<path class="st3" d="M891.5,312c-1.3,1.7-3.2,3-5,3c-3.7,0-5.9-3-5.9-6.2c0-2.3,1-4.2,3-5.8c1.5-1.2,3.2-1.7,4.4-1.7
				c1.3,0,2.2,0.4,2.7,0.8c0.4,0.3,0.5,0.5,0.5,0.9c0,0.6-0.6,1.2-0.9,1.2c-0.1,0-0.3-0.1-0.5-0.3c-0.9-0.8-1.9-1.2-3-1.2
				c-2.1,0-3.8,1.7-3.8,4.8c0,4.1,2.8,5.5,4.5,5.5c1.3,0,2.2-0.4,3.7-1.7L891.5,312z"/>
			<path class="st3" d="M903.5,312.2c-1.9,2.3-3.9,2.8-4.8,2.8c-3.6,0-5.7-3-5.7-6.3c0-2,0.8-3.8,1.9-5.1c1.2-1.4,2.8-2.2,4.3-2.2
				c2.4,0,4.4,2.2,4.4,4.5c0,0.6-0.1,0.8-0.6,0.9s-4.2,0.4-7.8,0.5c0,4.1,2.4,5.8,4.5,5.8c1.2,0,2.3-0.5,3.4-1.5L903.5,312.2z
				 M898.6,302.5c-1.4,0-2.7,1.2-3.2,3.6c1.7,0,3.4,0,5.2-0.1c0.5,0,0.7-0.2,0.7-0.6C901.3,303.9,900.3,302.5,898.6,302.5
				L898.6,302.5z"/>
			<path class="st3" d="M913.2,305.2c-0.5-1.7-1.6-2.9-3-2.9c-1.2,0-2,0.9-2,2.1c0,1.4,1.2,2.1,2.6,2.6c2.2,0.9,3.7,2,3.7,4
				c0,2.7-2.5,4.1-4.9,4.1c-1.5,0-2.8-0.6-3.3-1c-0.2-0.4-0.5-2.4-0.5-3.4l0.8-0.1c0.5,2,1.8,3.6,3.6,3.6c1.1,0,2.2-0.8,2.2-2.2
				c0-1.3-0.9-2.1-2.3-2.7c-1.9-0.8-3.7-1.8-3.7-4c0-2.1,1.8-3.8,4.4-3.8c1.2,0,2,0.3,2.6,0.5c0.2,0.6,0.5,2.4,0.6,3.1L913.2,305.2z
				"/>
		</g>
	</g>
</g>
</svg>
