<?xml version="1.0" encoding="utf-8"?>
<!-- Generator: Adobe Illustrator 23.0.1, SVG Export Plug-In . SVG Version: 6.00 Build 0)  -->
<svg version="1.1" xmlns="http://www.w3.org/2000/svg" xmlns:xlink="http://www.w3.org/1999/xlink" x="0px" y="0px"
	 viewBox="0 0 256 256" style="enable-background:new 0 0 256 256;" xml:space="preserve">
<style type="text/css">
	.st0{fill:#FFFFFF;stroke:#000000;stroke-miterlimit:10;}
	.st1{fill:#808080;stroke:#000000;stroke-miterlimit:10;}
	.st2{fill:none;stroke:#000000;stroke-miterlimit:10;}
</style>
<g id="レイヤー_1">
	<rect x="48.5" y="50.5" class="st0" width="20" height="20"/>
	<rect x="68.5" y="50.5" class="st0" width="20" height="20"/>
	<rect x="88.5" y="50.5" class="st0" width="20" height="20"/>
	<rect x="108.5" y="50.5" class="st0" width="20" height="20"/>
	<rect x="128.5" y="50.5" class="st0" width="20" height="20"/>
	<rect x="148.5" y="50.5" class="st0" width="20" height="20"/>
	<rect x="168.5" y="50.5" class="st0" width="20" height="20"/>
	<rect x="188.5" y="50.5" class="st0" width="20" height="20"/>
	<rect x="48.5" y="70.5" class="st0" width="20" height="20"/>
	<rect x="68.5" y="70.5" class="st0" width="20" height="20"/>
	<rect x="88.5" y="70.5" class="st0" width="20" height="20"/>
	<rect x="108.5" y="70.5" class="st0" width="20" height="20"/>
	<rect x="128.5" y="70.5" class="st0" width="20" height="20"/>
	<rect x="148.5" y="70.5" class="st0" width="20" height="20"/>
	<rect x="168.5" y="70.5" class="st0" width="20" height="20"/>
	<rect x="188.5" y="70.5" class="st0" width="20" height="20"/>
	<rect x="48.5" y="90.5" class="st0" width="20" height="20"/>
	<rect x="68.5" y="90.5" class="st0" width="20" height="20"/>
	<rect x="88.5" y="90.5" class="st0" width="20" height="20"/>
	<rect x="108.5" y="90.5" class="st0" width="20" height="20"/>
	<rect x="128.5" y="90.5" class="st0" width="20" height="20"/>
	<rect x="148.5" y="90.5" class="st0" width="20" height="20"/>
	<rect x="168.5" y="90.5" class="st0" width="20" height="20"/>
	<rect x="188.5" y="90.5" class="st0" width="20" height="20"/>
	<rect x="48.5" y="110.5" class="st0" width="20" height="20"/>
	<rect x="68.5" y="110.5" class="st0" width="20" height="20"/>
	<rect x="88.5" y="110.5" class="st1" width="20" height="20"/>
	<rect x="108.5" y="110.5" class="st1" width="20" height="20"/>
	<rect x="128.5" y="110.5" class="st1" width="20" height="20"/>
	<rect x="148.5" y="110.5" class="st1" width="20" height="20"/>
	<rect x="168.5" y="110.5" class="st0" width="20" height="20"/>
	<rect x="188.5" y="110.5" class="st0" width="20" height="20"/>
	<rect x="48.5" y="130.5" class="st0" width="20" height="20"/>
	<rect x="68.5" y="130.5" class="st0" width="20" height="20"/>
	<rect x="88.5" y="130.5" class="st0" width="20" height="20"/>
	<rect x="108.5" y="130.5" class="st0" width="20" height="20"/>
	<rect x="128.5" y="130.5" class="st0" width="20" height="20"/>
	<rect x="148.5" y="130.5" class="st0" width="20" height="20"/>
	<rect x="168.5" y="130.5" class="st0" width="20" height="20"/>
	<rect x="188.5" y="130.5" class="st0" width="20" height="20"/>
	<rect x="48.5" y="150.5" class="st0" width="20" height="20"/>
	<rect x="68.5" y="150.5" class="st0" width="20" height="20"/>
	<rect x="88.5" y="150.5" class="st0" width="20" height="20"/>
	<rect x="108.5" y="150.5" class="st0" width="20" height="20"/>
	<rect x="128.5" y="150.5" class="st0" width="20" height="20"/>
	<rect x="148.5" y="150.5" class="st0" width="20" height="20"/>
	<rect x="168.5" y="150.5" class="st0" width="20" height="20"/>
	<rect x="188.5" y="150.5" class="st0" width="20" height="20"/>
	<rect x="48.5" y="170.5" class="st0" width="20" height="20"/>
	<rect x="68.5" y="170.5" class="st0" width="20" height="20"/>
	<rect x="88.5" y="170.5" class="st0" width="20" height="20"/>
	<rect x="108.5" y="170.5" class="st0" width="20" height="20"/>
	<rect x="128.5" y="170.5" class="st0" width="20" height="20"/>
	<rect x="148.5" y="170.5" class="st0" width="20" height="20"/>
	<rect x="168.5" y="170.5" class="st0" width="20" height="20"/>
	<rect x="188.5" y="170.5" class="st0" width="20" height="20"/>
	<rect x="48.5" y="190.5" class="st1" width="20" height="20"/>
	<rect x="68.5" y="190.5" class="st1" width="20" height="20"/>
	<rect x="88.5" y="190.5" class="st1" width="20" height="20"/>
	<rect x="108.5" y="190.5" class="st1" width="20" height="20"/>
	<rect x="128.5" y="190.5" class="st1" width="20" height="20"/>
	<rect x="148.5" y="190.5" class="st1" width="20" height="20"/>
	<rect x="168.5" y="190.5" class="st1" width="20" height="20"/>
	<rect x="188.5" y="190.5" class="st1" width="20" height="20"/>
</g>
<g id="レイヤー_2">
	<g>
		<path d="M12.9,16.1h-0.8v-3.1c0-1.1-0.4-1.7-1.2-1.7c-0.7,0-1.3,0.6-1.3,1.5v3.4H8.8v-3.4c0-0.9-0.4-1.5-1.1-1.5
			c-0.7,0-1.3,0.7-1.3,1.5v3.3H5.5v-4c0-0.6,0-1,0-1.4h0.7l0,0.9h0c0.3-0.5,0.8-1,1.7-1c0.7,0,1.3,0.4,1.5,1.1h0
			c0.4-0.6,0.9-1.1,1.7-1.1c0.7,0,1.7,0.4,1.7,2.3V16.1z"/>
		<path d="M18.1,14.8c0,0.4,0,0.9,0.1,1.3h-0.8l-0.1-0.7h0c-0.3,0.4-0.8,0.8-1.6,0.8c-1,0-1.6-0.8-1.6-1.5c0-1.3,1.1-2,3.2-2
			c0-0.5,0-1.5-1.2-1.5c-0.5,0-1,0.1-1.3,0.4L14.5,11c0.4-0.3,1-0.5,1.7-0.5c1.5,0,1.9,1.1,1.9,2.2V14.8z M17.3,13.3
			c-1,0-2.3,0.1-2.3,1.3c0,0.7,0.4,1,0.9,1c0.8,0,1.4-0.6,1.4-1.3V13.3z"/>
		<path d="M19.9,9.6l0.8-0.3v1.3h1.4v0.6h-1.4v3.1c0,0.7,0.2,1.1,0.7,1.1c0.3,0,0.4,0,0.6-0.1l0,0.6c-0.2,0.1-0.5,0.1-0.8,0.1
			c-1.3,0-1.4-1.2-1.4-1.8v-3.1h-0.8v-0.6h0.8V9.6z"/>
		<path d="M25.7,11.3c-0.1,0-0.2,0-0.3,0c-0.9,0-1.4,0.9-1.4,1.8v3h-0.8v-3.8c0-0.6,0-1.1,0-1.6h0.7l0,1h0c0.2-0.7,0.8-1.2,1.5-1.2
			c0.1,0,0.2,0,0.3,0V11.3z"/>
		<path d="M27.1,9.7c-0.3,0-0.5-0.3-0.5-0.6c0-0.3,0.2-0.6,0.5-0.6c0.3,0,0.5,0.2,0.5,0.6C27.6,9.5,27.4,9.7,27.1,9.7z M27.5,16.1
			h-0.8v-5.4h0.8V16.1z"/>
		<path d="M33.1,10.6l-1.8,2.6l1.8,2.8h-0.9l-0.8-1.3c-0.2-0.3-0.4-0.6-0.6-1h0c-0.2,0.3-0.4,0.6-0.6,1l-0.8,1.3h-0.9l1.9-2.8
			l-1.8-2.7h0.9l0.8,1.2c0.2,0.3,0.4,0.6,0.5,0.9h0c0.2-0.3,0.4-0.6,0.5-0.9l0.8-1.2H33.1z"/>
		<path d="M36.2,17.4h-2v-9h2v0.6h-1.3v7.9h1.3V17.4z"/>
		<path d="M36.8,12.4c0-2.6,1-3.9,2.4-3.9c1.4,0,2.3,1.3,2.3,3.8c0,2.6-0.9,3.9-2.4,3.9C37.7,16.2,36.8,14.9,36.8,12.4z M40.6,12.3
			c0-1.9-0.4-3.2-1.5-3.2c-0.9,0-1.5,1.2-1.5,3.2c0,2,0.5,3.2,1.5,3.2C40.2,15.5,40.6,14.1,40.6,12.3z"/>
		<path d="M42.1,8.3h2v9h-2v-0.6h1.3V8.9h-1.3V8.3z"/>
		<path d="M47.9,17.4h-2v-9h2v0.6h-1.3v7.9h1.3V17.4z"/>
		<path d="M48.5,12.4c0-2.6,1-3.9,2.4-3.9c1.4,0,2.3,1.3,2.3,3.8c0,2.6-0.9,3.9-2.4,3.9C49.4,16.2,48.5,14.9,48.5,12.4z M52.3,12.3
			c0-1.9-0.4-3.2-1.5-3.2c-0.9,0-1.5,1.2-1.5,3.2c0,2,0.5,3.2,1.5,3.2C51.9,15.5,52.3,14.1,52.3,12.3z"/>
		<path d="M53.8,8.3h2v9h-2v-0.6h1.3V8.9h-1.3V8.3z"/>
	</g>
	<g>
		<path d="M169.5,233.1h-0.8v-3.1c0-1.1-0.4-1.7-1.2-1.7c-0.7,0-1.3,0.6-1.3,1.5v3.4h-0.8v-3.4c0-0.9-0.4-1.5-1.1-1.5
			c-0.7,0-1.3,0.7-1.3,1.5v3.3h-0.8v-4c0-0.6,0-1,0-1.4h0.7l0,0.9h0c0.3-0.5,0.8-1,1.7-1c0.7,0,1.3,0.4,1.5,1.1h0
			c0.4-0.6,0.9-1.1,1.7-1.1c0.7,0,1.7,0.4,1.7,2.3V233.1z"/>
		<path d="M174.7,231.8c0,0.4,0,0.9,0.1,1.3H174l-0.1-0.7h0c-0.3,0.4-0.8,0.8-1.6,0.8c-1,0-1.6-0.8-1.6-1.5c0-1.3,1.1-2,3.2-2
			c0-0.5,0-1.5-1.2-1.5c-0.5,0-1,0.1-1.3,0.4l-0.2-0.6c0.4-0.3,1-0.5,1.7-0.5c1.5,0,1.9,1.1,1.9,2.2V231.8z M173.9,230.3
			c-1,0-2.3,0.1-2.3,1.3c0,0.7,0.4,1,0.9,1c0.8,0,1.4-0.6,1.4-1.3V230.3z"/>
		<path d="M176.5,226.6l0.8-0.3v1.3h1.4v0.7h-1.4v3.1c0,0.7,0.2,1.1,0.7,1.1c0.3,0,0.4,0,0.6-0.1l0,0.6c-0.2,0.1-0.5,0.1-0.8,0.1
			c-1.3,0-1.4-1.2-1.4-1.8v-3.1h-0.8v-0.7h0.8V226.6z"/>
		<path d="M182.3,228.3c-0.1,0-0.2,0-0.3,0c-0.9,0-1.4,0.9-1.4,1.8v3h-0.8v-3.8c0-0.6,0-1.1,0-1.6h0.7l0,1h0
			c0.2-0.7,0.8-1.2,1.5-1.2c0.1,0,0.2,0,0.3,0V228.3z"/>
		<path d="M183.7,226.7c-0.3,0-0.5-0.3-0.5-0.6c0-0.3,0.2-0.6,0.5-0.6c0.3,0,0.5,0.2,0.5,0.6C184.2,226.5,184,226.7,183.7,226.7z
			 M184.1,233.1h-0.8v-5.4h0.8V233.1z"/>
		<path d="M189.7,227.6l-1.8,2.6l1.8,2.8h-0.9l-0.8-1.3c-0.2-0.3-0.4-0.6-0.6-1h0c-0.2,0.3-0.4,0.6-0.6,1l-0.8,1.3H185l1.9-2.8
			l-1.8-2.7h0.9l0.8,1.2c0.2,0.3,0.4,0.6,0.6,0.9h0c0.2-0.3,0.4-0.6,0.5-0.9l0.8-1.2H189.7z"/>
		<path d="M192.8,234.4h-2v-9h2v0.6h-1.3v7.9h1.3V234.4z"/>
		<path d="M196.3,228.3c-0.1,0-0.2,0-0.3,0c-0.9,0-1.4,0.9-1.4,1.8v3h-0.8v-3.8c0-0.6,0-1.1,0-1.6h0.7l0,1h0
			c0.2-0.7,0.8-1.2,1.5-1.2c0.1,0,0.2,0,0.3,0V228.3z"/>
		<path d="M201.9,230.3c0,2-1.3,2.9-2.5,2.9c-1.4,0-2.5-1-2.5-2.8c0-1.9,1.2-2.9,2.5-2.9C200.9,227.5,201.9,228.6,201.9,230.3z
			 M199.4,228.2c-1.2,0-1.7,1.2-1.7,2.2c0,1.2,0.7,2.2,1.6,2.2c1,0,1.7-1,1.7-2.2C201,229.4,200.5,228.2,199.4,228.2z"/>
		<path d="M210.1,227.6l-1.7,5.5h-0.7l-0.9-2.7c-0.2-0.6-0.3-1.2-0.5-1.8h0c-0.1,0.6-0.3,1.2-0.5,1.8l-0.9,2.7h-0.8l-1.6-5.5h0.9
			l0.8,2.9c0.1,0.6,0.3,1.2,0.4,1.7h0c0.1-0.5,0.3-1.1,0.5-1.7l0.9-2.9h0.7l0.9,2.8c0.2,0.6,0.3,1.2,0.5,1.8h0
			c0.1-0.5,0.3-1.1,0.4-1.8l0.8-2.8H210.1z"/>
		<path d="M210.6,229.7h2.7v0.6h-2.7V229.7z"/>
		<path d="M216.3,233.1v-6.7h0l-1.2,0.7l-0.2-0.6l1.5-0.9h0.7v7.5H216.3z"/>
		<path d="M219.4,225.3h2v9h-2v-0.6h1.3v-7.9h-1.3V225.3z"/>
		<path d="M225.2,234.4h-2v-9h2v0.6h-1.3v7.9h1.3V234.4z"/>
		<path d="M229.9,232.9c-0.2,0.1-0.8,0.3-1.5,0.3c-1.6,0-2.6-1.1-2.6-2.8c0-1.7,1.1-2.9,2.8-2.9c0.6,0,1.1,0.2,1.3,0.3l-0.2,0.7
			c-0.2-0.1-0.6-0.3-1.1-0.3c-1.3,0-1.9,1-1.9,2.2c0,1.3,0.8,2.1,1.9,2.1c0.5,0,0.9-0.1,1.2-0.3L229.9,232.9z"/>
		<path d="M235.7,230.3c0,2-1.3,2.9-2.5,2.9c-1.4,0-2.5-1-2.5-2.8c0-1.9,1.2-2.9,2.5-2.9C234.7,227.5,235.7,228.6,235.7,230.3z
			 M233.2,228.2c-1.2,0-1.7,1.2-1.7,2.2c0,1.2,0.7,2.2,1.6,2.2c1,0,1.7-1,1.7-2.2C234.9,229.4,234.4,228.2,233.2,228.2z"/>
		<path d="M237.8,233.1H237v-8h0.8V233.1z"/>
		<path d="M239,229.7h2.7v0.6H239V229.7z"/>
		<path d="M244.6,233.1v-6.7h0l-1.2,0.7l-0.2-0.6l1.5-0.9h0.7v7.5H244.6z"/>
		<path d="M247.7,225.3h2v9h-2v-0.6h1.3v-7.9h-1.3V225.3z"/>
	</g>
	<g>
		<path d="M12.9,233.1h-0.8v-3.1c0-1.1-0.4-1.7-1.2-1.7c-0.7,0-1.3,0.6-1.3,1.5v3.4H8.8v-3.4c0-0.9-0.4-1.5-1.1-1.5
			c-0.7,0-1.3,0.7-1.3,1.5v3.3H5.5v-4c0-0.6,0-1,0-1.4h0.7l0,0.9h0c0.3-0.5,0.8-1,1.7-1c0.7,0,1.3,0.4,1.5,1.1h0
			c0.4-0.6,0.9-1.1,1.7-1.1c0.7,0,1.7,0.4,1.7,2.3V233.1z"/>
		<path d="M18.1,231.8c0,0.4,0,0.9,0.1,1.3h-0.8l-0.1-0.7h0c-0.3,0.4-0.8,0.8-1.6,0.8c-1,0-1.6-0.8-1.6-1.5c0-1.3,1.1-2,3.2-2
			c0-0.5,0-1.5-1.2-1.5c-0.5,0-1,0.1-1.3,0.4l-0.2-0.6c0.4-0.3,1-0.5,1.7-0.5c1.5,0,1.9,1.1,1.9,2.2V231.8z M17.3,230.3
			c-1,0-2.3,0.1-2.3,1.3c0,0.7,0.4,1,0.9,1c0.8,0,1.4-0.6,1.4-1.3V230.3z"/>
		<path d="M19.9,226.6l0.8-0.3v1.3h1.4v0.7h-1.4v3.1c0,0.7,0.2,1.1,0.7,1.1c0.3,0,0.4,0,0.6-0.1l0,0.6c-0.2,0.1-0.5,0.1-0.8,0.1
			c-1.3,0-1.4-1.2-1.4-1.8v-3.1h-0.8v-0.7h0.8V226.6z"/>
		<path d="M25.7,228.3c-0.1,0-0.2,0-0.3,0c-0.9,0-1.4,0.9-1.4,1.8v3h-0.8v-3.8c0-0.6,0-1.1,0-1.6h0.7l0,1h0c0.2-0.7,0.8-1.2,1.5-1.2
			c0.1,0,0.2,0,0.3,0V228.3z"/>
		<path d="M27.1,226.7c-0.3,0-0.5-0.3-0.5-0.6c0-0.3,0.2-0.6,0.5-0.6c0.3,0,0.5,0.2,0.5,0.6C27.6,226.5,27.4,226.7,27.1,226.7z
			 M27.5,233.1h-0.8v-5.4h0.8V233.1z"/>
		<path d="M33.1,227.6l-1.8,2.6l1.8,2.8h-0.9l-0.8-1.3c-0.2-0.3-0.4-0.6-0.6-1h0c-0.2,0.3-0.4,0.6-0.6,1l-0.8,1.3h-0.9l1.9-2.8
			l-1.8-2.7h0.9l0.8,1.2c0.2,0.3,0.4,0.6,0.5,0.9h0c0.2-0.3,0.4-0.6,0.5-0.9l0.8-1.2H33.1z"/>
		<path d="M36.2,234.4h-2v-9h2v0.6h-1.3v7.9h1.3V234.4z"/>
		<path d="M39.7,228.3c-0.1,0-0.2,0-0.3,0c-0.9,0-1.4,0.9-1.4,1.8v3h-0.8v-3.8c0-0.6,0-1.1,0-1.6h0.7l0,1h0c0.2-0.7,0.8-1.2,1.5-1.2
			c0.1,0,0.2,0,0.3,0V228.3z"/>
		<path d="M45.3,230.3c0,2-1.3,2.9-2.5,2.9c-1.4,0-2.5-1-2.5-2.8c0-1.9,1.2-2.9,2.5-2.9C44.3,227.5,45.3,228.6,45.3,230.3z
			 M42.8,228.2c-1.2,0-1.7,1.2-1.7,2.2c0,1.2,0.7,2.2,1.6,2.2c1,0,1.7-1,1.7-2.2C44.4,229.4,43.9,228.2,42.8,228.2z"/>
		<path d="M53.5,227.6l-1.7,5.5h-0.7l-0.9-2.7c-0.2-0.6-0.3-1.2-0.5-1.8h0c-0.1,0.6-0.3,1.2-0.5,1.8l-0.9,2.7h-0.7l-1.6-5.5h0.9
			l0.8,2.9c0.1,0.6,0.3,1.2,0.4,1.7h0c0.1-0.5,0.3-1.1,0.5-1.7l0.9-2.9h0.7l0.9,2.8c0.2,0.6,0.3,1.2,0.5,1.8h0
			c0.1-0.5,0.3-1.1,0.4-1.8l0.8-2.8H53.5z"/>
		<path d="M54,229.7h2.7v0.6H54V229.7z"/>
		<path d="M59.7,233.1v-6.7h0l-1.2,0.7l-0.2-0.6l1.5-0.9h0.7v7.5H59.7z"/>
		<path d="M62.8,225.3h2v9h-2v-0.6h1.3v-7.9h-1.3V225.3z"/>
		<path d="M68.6,234.4h-2v-9h2v0.6h-1.3v7.9h1.3V234.4z"/>
		<path d="M69.2,229.4c0-2.6,1-3.9,2.4-3.9c1.4,0,2.3,1.3,2.3,3.8c0,2.6-0.9,3.9-2.4,3.9C70.2,233.2,69.2,231.9,69.2,229.4z
			 M73.1,229.3c0-1.9-0.4-3.2-1.5-3.2c-0.9,0-1.5,1.2-1.5,3.2c0,2,0.5,3.2,1.5,3.2C72.7,232.5,73.1,231.1,73.1,229.3z"/>
		<path d="M74.5,225.3h2v9h-2v-0.6h1.3v-7.9h-1.3V225.3z"/>
	</g>
	<g>
		<path d="M190.3,16.1h-0.8v-3.1c0-1.1-0.4-1.7-1.2-1.7c-0.7,0-1.3,0.6-1.3,1.5v3.4h-0.8v-3.4c0-0.9-0.4-1.5-1.1-1.5
			c-0.7,0-1.3,0.7-1.3,1.5v3.3h-0.8v-4c0-0.6,0-1,0-1.4h0.7l0.1,0.9h0c0.3-0.5,0.8-1,1.7-1c0.7,0,1.3,0.4,1.5,1.1h0
			c0.4-0.6,0.9-1.1,1.8-1.1c0.7,0,1.7,0.4,1.7,2.3V16.1z"/>
		<path d="M195.4,14.8c0,0.4,0,0.9,0.1,1.3h-0.8l-0.1-0.7h0c-0.3,0.4-0.8,0.8-1.6,0.8c-1,0-1.6-0.8-1.6-1.5c0-1.3,1.1-2,3.2-2
			c0-0.5,0-1.5-1.2-1.5c-0.5,0-1,0.1-1.3,0.4l-0.2-0.6c0.4-0.3,1-0.5,1.7-0.5c1.5,0,1.9,1.1,1.9,2.2V14.8z M194.6,13.3
			c-1,0-2.3,0.1-2.3,1.3c0,0.7,0.4,1,0.9,1c0.8,0,1.4-0.6,1.4-1.3V13.3z"/>
		<path d="M197.3,9.6l0.8-0.3v1.3h1.4v0.6h-1.4v3.1c0,0.7,0.2,1.1,0.7,1.1c0.3,0,0.4,0,0.6-0.1l0,0.6c-0.2,0.1-0.5,0.1-0.8,0.1
			c-1.3,0-1.4-1.2-1.4-1.8v-3.1h-0.8v-0.6h0.8V9.6z"/>
		<path d="M203.1,11.3c-0.1,0-0.2,0-0.3,0c-0.9,0-1.4,0.9-1.4,1.8v3h-0.8v-3.8c0-0.6,0-1.1,0-1.6h0.7l0,1h0c0.2-0.7,0.8-1.2,1.5-1.2
			c0.1,0,0.2,0,0.3,0V11.3z"/>
		<path d="M204.4,9.7c-0.3,0-0.5-0.3-0.5-0.6c0-0.3,0.2-0.6,0.5-0.6c0.3,0,0.5,0.2,0.5,0.6C205,9.5,204.8,9.7,204.4,9.7z
			 M204.9,16.1H204v-5.4h0.8V16.1z"/>
		<path d="M210.4,10.6l-1.8,2.6l1.8,2.8h-0.9l-0.8-1.3c-0.2-0.3-0.4-0.6-0.6-1h0c-0.2,0.3-0.4,0.6-0.6,1l-0.8,1.3h-0.9l1.9-2.8
			l-1.8-2.7h0.9l0.8,1.2c0.2,0.3,0.4,0.6,0.5,0.9h0c0.2-0.3,0.4-0.6,0.5-0.9l0.8-1.2H210.4z"/>
		<path d="M213.5,17.4h-2v-9h2v0.6h-1.3v7.9h1.3V17.4z"/>
		<path d="M214.1,12.4c0-2.6,1-3.9,2.4-3.9c1.4,0,2.3,1.3,2.3,3.8c0,2.6-0.9,3.9-2.4,3.9C215.1,16.2,214.1,14.9,214.1,12.4z
			 M218,12.3c0-1.9-0.5-3.2-1.5-3.2c-0.9,0-1.5,1.2-1.5,3.2c0,2,0.5,3.2,1.5,3.2C217.6,15.5,218,14.1,218,12.3z"/>
		<path d="M219.4,8.3h2v9h-2v-0.6h1.3V8.9h-1.3V8.3z"/>
		<path d="M225.2,17.4h-2v-9h2v0.6h-1.3v7.9h1.3V17.4z"/>
		<path d="M229.9,15.9c-0.2,0.1-0.8,0.3-1.5,0.3c-1.6,0-2.6-1.1-2.6-2.8c0-1.7,1.1-2.9,2.8-2.9c0.6,0,1.1,0.2,1.3,0.3l-0.2,0.7
			c-0.2-0.1-0.6-0.3-1.1-0.3c-1.3,0-1.9,1-1.9,2.2c0,1.3,0.8,2.1,1.9,2.1c0.5,0,0.9-0.1,1.2-0.3L229.9,15.9z"/>
		<path d="M235.7,13.3c0,2-1.3,2.9-2.5,2.9c-1.4,0-2.5-1-2.5-2.8c0-1.9,1.2-2.9,2.5-2.9C234.7,10.5,235.7,11.6,235.7,13.3z
			 M233.2,11.2c-1.2,0-1.7,1.2-1.7,2.2c0,1.2,0.7,2.2,1.6,2.2c1,0,1.7-1,1.7-2.2C234.9,12.4,234.4,11.2,233.2,11.2z"/>
		<path d="M237.8,16.1H237v-8h0.8V16.1z"/>
		<path d="M239,12.7h2.7v0.6H239V12.7z"/>
		<path d="M244.6,16.1V9.4h0l-1.2,0.7l-0.2-0.6l1.5-0.9h0.7v7.5H244.6z"/>
		<path d="M247.7,8.3h2v9h-2v-0.6h1.3V8.9h-1.3V8.3z"/>
	</g>
	<g>
		<g>
			<line class="st2" x1="200.1" y1="30" x2="29" y2="30"/>
			<g>
				<polygon points="198.2,27.1 209,30 198.2,32.9 				"/>
			</g>
		</g>
	</g>
	<g>
		<g>
			<line class="st2" x1="29.5" y1="201.6" x2="29.5" y2="30.5"/>
			<g>
				<polygon points="32.4,199.7 29.5,210.5 26.6,199.7 				"/>
			</g>
		</g>
	</g>
	<g>
		<path d="M16.3,122.4l-2.4,4.3v3.3H13v-3.2l-2.3-4.4h0.9l1.1,2.1c0.3,0.6,0.5,1.1,0.8,1.6h0c0.2-0.5,0.5-1,0.8-1.6l1.1-2.1H16.3z"
			/>
	</g>
	<g>
		<path d="M127.9,18.7H127l-1-1.8c-0.4-0.6-0.6-1-0.9-1.5h0c-0.2,0.5-0.4,0.9-0.8,1.5l-0.9,1.8h-0.9l2.3-3.9l-2.2-3.8h0.9l1,1.9
			c0.3,0.5,0.5,0.9,0.7,1.3h0c0.2-0.5,0.4-0.8,0.7-1.3l1-1.9h0.9l-2.2,3.7L127.9,18.7z"/>
	</g>
	<g>
	</g>
	<g>
	</g>
	<g>
	</g>
	<g>
	</g>
	<g>
	</g>
	<g>
	</g>
	<g>
	</g>
	<g>
	</g>
	<g>
	</g>
	<g>
	</g>
	<g>
	</g>
	<g>
	</g>
</g>
</svg>
