<?xml version="1.0" encoding="utf-8"?>
<svg version="1.1" id="layer" xmlns="http://www.w3.org/2000/svg" xmlns:xlink="http://www.w3.org/1999/xlink" x="0px" y="0px" viewBox="0 0 80 32" style="enable-background:new 0 0 80 32;" xml:space="preserve">
<rect x="45" y="3" width="1" height="1"/>
<rect x="46" y="3" width="1" height="1"/>
<rect x="47" y="3" width="1" height="1"/>
<rect x="48" y="3" width="1" height="1"/>
<rect x="49" y="3" width="1" height="1"/>
<rect x="50" y="3" width="1" height="1"/>
<rect x="51" y="3" width="1" height="1"/>
<rect x="25" y="4" width="1" height="1"/>
<rect x="26" y="4" width="1" height="1"/>
<rect x="27" y="4" width="1" height="1"/>
<rect x="28" y="4" width="1" height="1"/>
<rect x="29" y="4" width="1" height="1"/>
<rect x="30" y="4" width="1" height="1"/>
<rect x="31" y="4" width="1" height="1"/>
<rect x="42" y="4" width="1" height="1"/>
<rect x="43" y="4" width="1" height="1"/>
<rect x="44" y="4" width="1" height="1"/>
<rect x="45" y="4" width="1" height="1"/>
<rect x="46" y="4" width="1" height="1"/>
<rect x="47" y="4" width="1" height="1"/>
<rect x="48" y="4" width="1" height="1"/>
<rect x="49" y="4" width="1" height="1"/>
<rect x="50" y="4" width="1" height="1"/>
<rect x="51" y="4" width="1" height="1"/>
<rect x="17" y="5" width="1" height="1"/>
<rect x="18" y="5" width="1" height="1"/>
<rect x="19" y="5" width="1" height="1"/>
<rect x="20" y="5" width="1" height="1"/>
<rect x="21" y="5" width="1" height="1"/>
<rect x="22" y="5" width="1" height="1"/>
<rect x="23" y="5" width="1" height="1"/>
<rect x="24" y="5" width="1" height="1"/>
<rect x="25" y="5" width="1" height="1"/>
<rect x="26" y="5" width="1" height="1"/>
<rect x="27" y="5" width="1" height="1"/>
<rect x="28" y="5" width="1" height="1"/>
<rect x="29" y="5" width="1" height="1"/>
<rect x="30" y="5" width="1" height="1"/>
<rect x="31" y="5" width="1" height="1"/>
<rect x="42" y="5" width="1" height="1"/>
<rect x="45" y="5" width="1" height="1"/>
<rect x="46" y="5" width="1" height="1"/>
<rect x="47" y="5" width="1" height="1"/>
<rect x="48" y="5" width="1" height="1"/>
<rect x="49" y="5" width="1" height="1"/>
<rect x="50" y="5" width="1" height="1"/>
<rect x="51" y="5" width="1" height="1"/>
<rect x="17" y="6" width="1" height="1"/>
<rect x="25" y="6" width="1" height="1"/>
<rect x="26" y="6" width="1" height="1"/>
<rect x="27" y="6" width="1" height="1"/>
<rect x="28" y="6" width="1" height="1"/>
<rect x="29" y="6" width="1" height="1"/>
<rect x="30" y="6" width="1" height="1"/>
<rect x="31" y="6" width="1" height="1"/>
<rect x="42" y="6" width="1" height="1"/>
<rect x="45" y="6" width="1" height="1"/>
<rect x="46" y="6" width="1" height="1"/>
<rect x="47" y="6" width="1" height="1"/>
<rect x="48" y="6" width="1" height="1"/>
<rect x="49" y="6" width="1" height="1"/>
<rect x="50" y="6" width="1" height="1"/>
<rect x="51" y="6" width="1" height="1"/>
<rect x="17" y="7" width="1" height="1"/>
<rect x="25" y="7" width="1" height="1"/>
<rect x="26" y="7" width="1" height="1"/>
<rect x="27" y="7" width="1" height="1"/>
<rect x="28" y="7" width="1" height="1"/>
<rect x="29" y="7" width="1" height="1"/>
<rect x="30" y="7" width="1" height="1"/>
<rect x="31" y="7" width="1" height="1"/>
<rect x="42" y="7" width="1" height="1"/>
<rect x="45" y="7" width="1" height="1"/>
<rect x="46" y="7" width="1" height="1"/>
<rect x="47" y="7" width="1" height="1"/>
<rect x="48" y="7" width="1" height="1"/>
<rect x="49" y="7" width="1" height="1"/>
<rect x="50" y="7" width="1" height="1"/>
<rect x="51" y="7" width="1" height="1"/>
<rect x="17" y="8" width="1" height="1"/>
<rect x="25" y="8" width="1" height="1"/>
<rect x="26" y="8" width="1" height="1"/>
<rect x="27" y="8" width="1" height="1"/>
<rect x="28" y="8" width="1" height="1"/>
<rect x="29" y="8" width="1" height="1"/>
<rect x="30" y="8" width="1" height="1"/>
<rect x="31" y="8" width="1" height="1"/>
<rect x="42" y="8" width="1" height="1"/>
<rect x="45" y="8" width="1" height="1"/>
<rect x="46" y="8" width="1" height="1"/>
<rect x="47" y="8" width="1" height="1"/>
<rect x="48" y="8" width="1" height="1"/>
<rect x="49" y="8" width="1" height="1"/>
<rect x="50" y="8" width="1" height="1"/>
<rect x="51" y="8" width="1" height="1"/>
<rect x="17" y="9" width="1" height="1"/>
<rect x="25" y="9" width="1" height="1"/>
<rect x="26" y="9" width="1" height="1"/>
<rect x="27" y="9" width="1" height="1"/>
<rect x="28" y="9" width="1" height="1"/>
<rect x="29" y="9" width="1" height="1"/>
<rect x="30" y="9" width="1" height="1"/>
<rect x="31" y="9" width="1" height="1"/>
<rect x="42" y="9" width="1" height="1"/>
<rect x="48" y="9" width="1" height="1"/>
<rect x="17" y="10" width="1" height="1"/>
<rect x="28" y="10" width="1" height="1"/>
<rect x="42" y="10" width="1" height="1"/>
<rect x="48" y="10" width="1" height="1"/>
<rect x="17" y="11" width="1" height="1"/>
<rect x="28" y="11" width="1" height="1"/>
<rect x="42" y="11" width="1" height="1"/>
<rect x="48" y="11" width="1" height="1"/>
<rect x="17" y="12" width="1" height="1"/>
<rect x="28" y="12" width="1" height="1"/>
<rect x="42" y="12" width="1" height="1"/>
<rect x="47" y="12" width="1" height="1"/>
<rect x="48" y="12" width="1" height="1"/>
<rect x="17" y="13" width="1" height="1"/>
<rect x="28" y="13" width="1" height="1"/>
<rect x="42" y="13" width="1" height="1"/>
<rect x="47" y="13" width="1" height="1"/>
<rect x="17" y="14" width="1" height="1"/>
<rect x="28" y="14" width="1" height="1"/>
<rect x="42" y="14" width="1" height="1"/>
<rect x="47" y="14" width="1" height="1"/>
<rect x="17" y="15" width="1" height="1"/>
<rect x="28" y="15" width="1" height="1"/>
<rect x="42" y="15" width="1" height="1"/>
<rect x="47" y="15" width="1" height="1"/>
<rect x="17" y="16" width="1" height="1"/>
<rect x="28" y="16" width="1" height="1"/>
<rect x="29" y="16" width="1" height="1"/>
<rect x="30" y="16" width="1" height="1"/>
<rect x="31" y="16" width="1" height="1"/>
<rect x="32" y="16" width="1" height="1"/>
<rect x="33" y="16" width="1" height="1"/>
<rect x="42" y="16" width="1" height="1"/>
<rect x="47" y="16" width="1" height="1"/>
<rect x="67" y="16" width="1" height="1"/>
<rect x="68" y="16" width="1" height="1"/>
<rect x="69" y="16" width="1" height="1"/>
<rect x="70" y="16" width="1" height="1"/>
<rect x="71" y="16" width="1" height="1"/>
<rect x="72" y="16" width="1" height="1"/>
<rect x="73" y="16" width="1" height="1"/>
<rect x="17" y="17" width="1" height="1"/>
<rect x="33" y="17" width="1" height="1"/>
<rect x="42" y="17" width="1" height="1"/>
<rect x="47" y="17" width="1" height="1"/>
<rect x="67" y="17" width="1" height="1"/>
<rect x="68" y="17" width="1" height="1"/>
<rect x="69" y="17" width="1" height="1"/>
<rect x="70" y="17" width="1" height="1"/>
<rect x="71" y="17" width="1" height="1"/>
<rect x="72" y="17" width="1" height="1"/>
<rect x="73" y="17" width="1" height="1"/>
<rect x="17" y="18" width="1" height="1"/>
<rect x="33" y="18" width="1" height="1"/>
<rect x="42" y="18" width="1" height="1"/>
<rect x="47" y="18" width="1" height="1"/>
<rect x="67" y="18" width="1" height="1"/>
<rect x="68" y="18" width="1" height="1"/>
<rect x="69" y="18" width="1" height="1"/>
<rect x="70" y="18" width="1" height="1"/>
<rect x="71" y="18" width="1" height="1"/>
<rect x="72" y="18" width="1" height="1"/>
<rect x="73" y="18" width="1" height="1"/>
<rect x="17" y="19" width="1" height="1"/>
<rect x="33" y="19" width="1" height="1"/>
<rect x="42" y="19" width="1" height="1"/>
<rect x="47" y="19" width="1" height="1"/>
<rect x="67" y="19" width="1" height="1"/>
<rect x="68" y="19" width="1" height="1"/>
<rect x="69" y="19" width="1" height="1"/>
<rect x="70" y="19" width="1" height="1"/>
<rect x="71" y="19" width="1" height="1"/>
<rect x="72" y="19" width="1" height="1"/>
<rect x="73" y="19" width="1" height="1"/>
<rect x="7" y="20" width="1" height="1"/>
<rect x="8" y="20" width="1" height="1"/>
<rect x="9" y="20" width="1" height="1"/>
<rect x="10" y="20" width="1" height="1"/>
<rect x="11" y="20" width="1" height="1"/>
<rect x="12" y="20" width="1" height="1"/>
<rect x="13" y="20" width="1" height="1"/>
<rect x="17" y="20" width="1" height="1"/>
<rect x="29" y="20" width="1" height="1"/>
<rect x="30" y="20" width="1" height="1"/>
<rect x="31" y="20" width="1" height="1"/>
<rect x="32" y="20" width="1" height="1"/>
<rect x="33" y="20" width="1" height="1"/>
<rect x="34" y="20" width="1" height="1"/>
<rect x="42" y="20" width="1" height="1"/>
<rect x="47" y="20" width="1" height="1"/>
<rect x="57" y="20" width="1" height="1"/>
<rect x="58" y="20" width="1" height="1"/>
<rect x="59" y="20" width="1" height="1"/>
<rect x="60" y="20" width="1" height="1"/>
<rect x="61" y="20" width="1" height="1"/>
<rect x="62" y="20" width="1" height="1"/>
<rect x="63" y="20" width="1" height="1"/>
<rect x="64" y="20" width="1" height="1"/>
<rect x="65" y="20" width="1" height="1"/>
<rect x="66" y="20" width="1" height="1"/>
<rect x="67" y="20" width="1" height="1"/>
<rect x="68" y="20" width="1" height="1"/>
<rect x="69" y="20" width="1" height="1"/>
<rect x="70" y="20" width="1" height="1"/>
<rect x="71" y="20" width="1" height="1"/>
<rect x="72" y="20" width="1" height="1"/>
<rect x="73" y="20" width="1" height="1"/>
<rect x="7" y="21" width="1" height="1"/>
<rect x="8" y="21" width="1" height="1"/>
<rect x="9" y="21" width="1" height="1"/>
<rect x="10" y="21" width="1" height="1"/>
<rect x="11" y="21" width="1" height="1"/>
<rect x="12" y="21" width="1" height="1"/>
<rect x="13" y="21" width="1" height="1"/>
<rect x="17" y="21" width="1" height="1"/>
<rect x="29" y="21" width="1" height="1"/>
<rect x="30" y="21" width="1" height="1"/>
<rect x="31" y="21" width="1" height="1"/>
<rect x="32" y="21" width="1" height="1"/>
<rect x="33" y="21" width="1" height="1"/>
<rect x="34" y="21" width="1" height="1"/>
<rect x="42" y="21" width="1" height="1"/>
<rect x="47" y="21" width="1" height="1"/>
<rect x="57" y="21" width="1" height="1"/>
<rect x="67" y="21" width="1" height="1"/>
<rect x="68" y="21" width="1" height="1"/>
<rect x="69" y="21" width="1" height="1"/>
<rect x="70" y="21" width="1" height="1"/>
<rect x="71" y="21" width="1" height="1"/>
<rect x="72" y="21" width="1" height="1"/>
<rect x="73" y="21" width="1" height="1"/>
<rect x="7" y="22" width="1" height="1"/>
<rect x="8" y="22" width="1" height="1"/>
<rect x="9" y="22" width="1" height="1"/>
<rect x="10" y="22" width="1" height="1"/>
<rect x="11" y="22" width="1" height="1"/>
<rect x="12" y="22" width="1" height="1"/>
<rect x="13" y="22" width="1" height="1"/>
<rect x="14" y="22" width="1" height="1"/>
<rect x="15" y="22" width="1" height="1"/>
<rect x="16" y="22" width="1" height="1"/>
<rect x="17" y="22" width="1" height="1"/>
<rect x="29" y="22" width="1" height="1"/>
<rect x="30" y="22" width="1" height="1"/>
<rect x="31" y="22" width="1" height="1"/>
<rect x="32" y="22" width="1" height="1"/>
<rect x="33" y="22" width="1" height="1"/>
<rect x="34" y="22" width="1" height="1"/>
<rect x="35" y="22" width="1" height="1"/>
<rect x="36" y="22" width="1" height="1"/>
<rect x="37" y="22" width="1" height="1"/>
<rect x="38" y="22" width="1" height="1"/>
<rect x="39" y="22" width="1" height="1"/>
<rect x="40" y="22" width="1" height="1"/>
<rect x="41" y="22" width="1" height="1"/>
<rect x="42" y="22" width="1" height="1"/>
<rect x="47" y="22" width="1" height="1"/>
<rect x="57" y="22" width="1" height="1"/>
<rect x="67" y="22" width="1" height="1"/>
<rect x="68" y="22" width="1" height="1"/>
<rect x="69" y="22" width="1" height="1"/>
<rect x="70" y="22" width="1" height="1"/>
<rect x="71" y="22" width="1" height="1"/>
<rect x="72" y="22" width="1" height="1"/>
<rect x="73" y="22" width="1" height="1"/>
<rect x="7" y="23" width="1" height="1"/>
<rect x="8" y="23" width="1" height="1"/>
<rect x="9" y="23" width="1" height="1"/>
<rect x="10" y="23" width="1" height="1"/>
<rect x="11" y="23" width="1" height="1"/>
<rect x="12" y="23" width="1" height="1"/>
<rect x="13" y="23" width="1" height="1"/>
<rect x="29" y="23" width="1" height="1"/>
<rect x="30" y="23" width="1" height="1"/>
<rect x="31" y="23" width="1" height="1"/>
<rect x="32" y="23" width="1" height="1"/>
<rect x="33" y="23" width="1" height="1"/>
<rect x="34" y="23" width="1" height="1"/>
<rect x="45" y="23" width="1" height="1"/>
<rect x="46" y="23" width="1" height="1"/>
<rect x="47" y="23" width="1" height="1"/>
<rect x="57" y="23" width="1" height="1"/>
<rect x="7" y="24" width="1" height="1"/>
<rect x="8" y="24" width="1" height="1"/>
<rect x="9" y="24" width="1" height="1"/>
<rect x="10" y="24" width="1" height="1"/>
<rect x="11" y="24" width="1" height="1"/>
<rect x="12" y="24" width="1" height="1"/>
<rect x="13" y="24" width="1" height="1"/>
<rect x="29" y="24" width="1" height="1"/>
<rect x="30" y="24" width="1" height="1"/>
<rect x="31" y="24" width="1" height="1"/>
<rect x="32" y="24" width="1" height="1"/>
<rect x="33" y="24" width="1" height="1"/>
<rect x="34" y="24" width="1" height="1"/>
<rect x="45" y="24" width="1" height="1"/>
<rect x="57" y="24" width="1" height="1"/>
<rect x="7" y="25" width="1" height="1"/>
<rect x="8" y="25" width="1" height="1"/>
<rect x="9" y="25" width="1" height="1"/>
<rect x="10" y="25" width="1" height="1"/>
<rect x="11" y="25" width="1" height="1"/>
<rect x="12" y="25" width="1" height="1"/>
<rect x="13" y="25" width="1" height="1"/>
<rect x="29" y="25" width="1" height="1"/>
<rect x="30" y="25" width="1" height="1"/>
<rect x="31" y="25" width="1" height="1"/>
<rect x="32" y="25" width="1" height="1"/>
<rect x="33" y="25" width="1" height="1"/>
<rect x="34" y="25" width="1" height="1"/>
<rect x="45" y="25" width="1" height="1"/>
<rect x="57" y="25" width="1" height="1"/>
<rect x="29" y="26" width="1" height="1"/>
<rect x="30" y="26" width="1" height="1"/>
<rect x="31" y="26" width="1" height="1"/>
<rect x="32" y="26" width="1" height="1"/>
<rect x="33" y="26" width="1" height="1"/>
<rect x="34" y="26" width="1" height="1"/>
<rect x="45" y="26" width="1" height="1"/>
<rect x="57" y="26" width="1" height="1"/>
<rect x="45" y="27" width="1" height="1"/>
<rect x="46" y="27" width="1" height="1"/>
<rect x="47" y="27" width="1" height="1"/>
<rect x="48" y="27" width="1" height="1"/>
<rect x="49" y="27" width="1" height="1"/>
<rect x="50" y="27" width="1" height="1"/>
<rect x="51" y="27" width="1" height="1"/>
<rect x="52" y="27" width="1" height="1"/>
<rect x="53" y="27" width="1" height="1"/>
<rect x="54" y="27" width="1" height="1"/>
<rect x="55" y="27" width="1" height="1"/>
<rect x="56" y="27" width="1" height="1"/>
<rect x="57" y="27" width="1" height="1"/>
</svg>